<?xml version="1.0" encoding="UTF-8" standalone="no"?>
<svg
   width="1067.5569"
   height="442.56314"
   viewBox="-702 0 1067.5569 442.56314"
   version="1.2"
   id="svg250"
   sodipodi:docname="Quick sheets - page 248.svg"
   inkscape:version="1.2.2 (b0a84865, 2022-12-01)"
   xmlns:inkscape="http://www.inkscape.org/namespaces/inkscape"
   xmlns:sodipodi="http://sodipodi.sourceforge.net/DTD/sodipodi-0.dtd"
   xmlns="http://www.w3.org/2000/svg"
   xmlns:svg="http://www.w3.org/2000/svg"><defs
   id="defs254" />
<sodipodi:namedview
   id="namedview252"
   pagecolor="#ffffff"
   bordercolor="#666666"
   borderopacity="1.0"
   inkscape:showpageshadow="2"
   inkscape:pageopacity="0.0"
   inkscape:pagecheckerboard="0"
   inkscape:deskcolor="#d1d1d1"
   showgrid="false"
   inkscape:zoom="0.29600295"
   inkscape:cx="692.56066"
   inkscape:cy="282.09178"
   inkscape:window-width="1440"
   inkscape:window-height="797"
   inkscape:window-x="0"
   inkscape:window-y="25"
   inkscape:window-maximized="1"
   inkscape:current-layer="svg250" />
<title
   id="title2">Quick sheets</title>
\n<g
   id="g8"
   transform="translate(-185.80896,-442.56314)">
  <path
     fill="none"
     stroke="#000000"
     stroke-width="4"
     stroke-linecap="round"
     stroke-linejoin="round"
     d="m -296.38,483.064 0.227,-0.171 -0.293,0.362 -0.065,-1 0.075,0.263 -0.412,0.141 0.574,-0.02 -0.304,0.113 0.174,0.36 -0.254,0.195 0.467,-0.339 -0.333,0.824 0.138,2.284 -0.375,0.425 0.36,4.232 -0.406,0.876 0.559,1.547 -0.352,2.169 0.198,-0.174 0.02,2.341 0.324,0.336 -0.278,1.586 0.331,1.234 -0.152,0.661 0.322,0.052 -0.415,4.056 0.103,1.942 0.29,0.196 -0.52,2.325 0.282,3.275 -0.383,1.612 0.216,1.652 -0.215,1.499 0.296,1.748 -0.611,0.741 0.649,2.211 -0.138,2.462 -0.252,0.1 0.276,1.28 -0.094,1.81 -0.356,0.828 0.594,2.965 -0.438,1.598 0.322,1.199 -0.482,4.512 -0.042,4.009 -0.372,0.662 0.293,0.077 0.549,2.604 -0.385,2.189 -0.319,0.158 0.035,5.129 0.297,0.435 -0.142,1.783 -0.325,0.358 0.458,3.081 -0.529,4.636 0.107,1.251 0.315,0.233 -0.494,1.295 0.039,0.837 -0.335,0.228 0.27,1.09 0.257,-0.054 -0.14,1.472 0.342,0.638 -0.43,0.834 -0.147,-0.407 0.092,2.322 0.436,1.036 -0.25,0.321 -0.015,2.149 -0.214,-0.156 0.407,3.459 -0.4,0.78 0.534,2.798 -0.372,1.251 0.753,2.657 -0.555,1.171 0.092,1.039 0.341,0.362 -0.175,1.663 0.331,0.701 -0.549,1.897 0.271,2.152 -0.222,0.188 0.65,2.544 0.419,0.447 -0.325,0.536 0.176,1.219 -0.083,-0.246 -0.246,0.54 -0.359,0.007 -0.052,0.905 0.028,-0.289 -0.195,0.112 -0.033,0.637 0.621,1.412 -0.43,1.833 0.564,2.517 -0.581,2.089 0.183,0.364 0.115,-0.246 0.059,0.505 0.404,-0.097 -0.255,0.233 -0.331,-0.221 0.25,1.457 -0.503,10e-4 0.324,0.277 0.101,-0.29 0.298,1.304 -0.169,0.575 -0.347,-0.781 0.801,-0.416 0.227,-0.681"
     id="path6" />
</g>
<g
   id="g12"
   transform="translate(-185.80896,-442.56314)">
  <path
     fill="none"
     stroke="#000000"
     stroke-width="4"
     stroke-linecap="round"
     stroke-linejoin="round"
     d="m -296.529,484.702 -1.57,-0.459 -0.072,-0.765 -0.461,0.822 0.436,-0.086 0.13,0.313 0.815,-0.737 -0.081,0.324 -0.574,0.186 0.273,-0.261 0.137,0.369 0.031,-0.545 -0.285,0.626 0.583,-0.134 0.657,-0.685 1.862,0.2 0.346,-0.433 0.561,0.461 0.099,0.569 1.312,-0.814 0.013,0.277 1.381,-0.069 0.067,0.342 1.179,-0.56 0.537,0.165 -0.039,0.29 1.833,-0.45 0.829,0.318 1.269,-0.125 0.461,0.339 2.904,-0.611 0.362,-0.329 3.506,0.559 3.623,-0.195 0.513,-0.27 0.824,0.192 0.432,-0.323 1.406,0.412 1.462,-0.111 2.032,-0.809 5.653,0.431 1.331,0.481 0.684,-0.207 2.296,0.441 0.224,0.437 1.155,-0.385 0.592,0.113 0.937,-0.551 3.926,1.243 2.354,-0.122 0.509,-0.353 2.547,0.459 3.171,-0.713 1.343,0.447 3.512,0.023 2.919,-0.285 0.561,-0.438 2.458,1.002 1.475,-0.467 2.09,-0.045 0.455,0.248 1.276,-0.363 1.702,0.145 0.483,0.37 1.151,-0.695 0.567,0.245 0.459,-0.254 1.166,0.645 1.568,-0.221 1.182,-0.729 1.965,-0.316 1.492,-0.131 0.671,0.373 0.968,-0.063 1.702,-0.441 0.726,0.156 0.465,-0.318 1.329,0.398 2.348,-1.192 1.807,0.572 0.104,-0.209 0.522,0.619 0.909,-0.115 0.414,0.273 1.096,-0.527 0.897,0.603 5.681,-0.133 1.313,1.081 0.828,-0.674 1.366,-0.228 0.973,0.69 3.495,-0.101 1.984,0.413 0.449,0.36 1.2,-0.557 0.725,0.125 0.265,-0.592 1.041,0.75 3.716,0.035 0.527,-0.337 0.773,0.283 0.188,0.409 1.856,-0.604 2.073,0.949 2.634,-0.028 0.138,-0.278 0.805,0.295 0.181,0.372 0.263,-0.104 0.121,0.339 0.323,-0.674 0.89,0.636 1.248,0.108 0.127,-0.633 0.233,0.885 -0.234,0.031 0.234,-0.207 -0.233,-0.13 0.435,-0.127 1.263,0.683 0.609,-0.415 0.348,0.936 0.043,-1.075 1.045,1.277 0.112,-0.799 0.06,0.799 0.236,-0.035 -0.364,0.232 0.689,0.44 0.021,-0.242 0.183,0.567 -0.281,0.927 0.367,1.527 -0.529,1.97 0.188,1.63 0.248,0.142 -0.968,4.77 -0.262,5.077 0.321,1.386 -0.042,2.234 0.293,0.643 -0.256,0.636 0.172,2.15 0.265,0.279 -0.233,2.445 0.424,0.854 0.104,1.784 -0.266,3.095 0.265,0.633 -0.249,0.347 0.583,1.529 0.246,6.282 -0.261,1.503 1.279,3.432 -0.243,3.261 0.15,0.981 0.305,0.096 0.032,1.455 -0.443,1.917 1.041,5.017 -0.297,2.541 -0.329,0.622 0.55,2.938 -0.209,3.713 0.252,1.837 -1.043,6.7 0.097,2.461 0.313,0.202 -0.935,8.686 0.461,0.49 -0.329,0.44 0.116,1.399 -0.297,1.012 0.235,-0.015 0.17,1.091 -0.742,3.003 -0.117,2.744 0.336,1.048 -0.226,2.116 -0.383,0.534 0.102,2.841 -0.452,2.891 0.246,1.127 -0.324,3.123 0.079,1.478 0.197,-0.063 -0.385,1.497 0.21,3.066 0.241,0.104 -0.35,1.34 0.078,1.581 0.334,0.58 -0.574,1.505 0.344,0.819 0.152,-0.177 0.084,0.712 -0.138,-0.488 -0.193,1.418 0.273,0.2 -0.167,0.569 0.417,-0.35 -0.192,1.849 0.246,-0.031 -0.003,0.675 0.321,-0.554 -0.129,0.385 -0.157,-0.141 -0.225,1.427 0.407,1.096 0.212,-0.193 -0.237,0.534 -0.318,-0.029 0.323,-1.211"
     id="path10" />
</g>
<g
   id="g16"
   transform="translate(-185.80896,-442.56314)">
  <path
     fill="none"
     stroke="#000000"
     stroke-width="4"
     stroke-linecap="round"
     stroke-linejoin="round"
     d="m -294.59,615.12 0.002,-0.563 -0.346,0.81 -0.243,-0.521 0.844,0.72 -0.172,-0.709 0.895,1.031 2.592,0.105 1.859,1.328 0.522,0.004 0.142,0.224 -0.221,0.037 2.719,0.414 0.582,0.712 1.175,-0.813 0.559,0.651 2.004,0.466 0.257,0.652 0.56,-0.199 -0.09,-0.269 0.684,0.154 0.528,-0.445 0.761,0.381 1.47,-0.474 1.736,0.11 0.212,-0.213 1.874,0.511 2.358,-1.386 1.351,-0.201 1.471,0.247 1.22,-0.28 2.165,0.367 0.583,-0.274 1.274,0.888 1.585,-0.762 0.306,-0.603 5.128,0.783 1.058,-0.278 0.23,-0.34 1.594,-0.112 0.985,0.48 0.84,-0.011 1.067,-0.812 0.461,0.223 0.876,-0.193 6.988,0.36 0.776,-0.541 1.89,0.537 0.769,-0.087 0.409,0.735 1.176,-1.042 0.67,0.037 0.517,-0.338 0.559,0.518 2.281,0.573 0.244,0.467 2.223,-0.745 1.362,0.263 0.081,0.278 1.222,-0.333 0.638,0.113 0.758,0.673 3.793,0.229 0.298,0.392 1.335,-0.555 0.747,0.239 0.468,-0.654 1.461,1.318 0.89,-0.004 0.518,0.454 1.47,-0.193 3.283,0.904 0.51,-0.184 1.081,0.714 2.092,-0.254 0.612,-0.356 1.536,0.226 0.163,0.319 0.944,-0.05 1.003,-0.709 1.34,-0.247 2.43,0.262 1.106,-0.329 0.528,0.26 1.583,-1.092 1.081,-0.02 0.344,-0.33 1.79,0.194 3.009,-0.366 0.817,0.358 0.935,-0.292 1.369,0.561 0.063,0.351 1.576,-0.712 0.798,0.101 0.654,-0.553 0.343,0.281 0.183,-0.425 0.64,0.727 1.206,-0.282 1.712,0.419 0.382,-0.329 1.823,0.533 0.328,0.598 1.211,-0.545 0.228,-0.475 0.372,0.647 2.697,-0.176 0.395,0.313 2.284,-0.662 0.567,-0.525 0.681,0.536 1.641,-0.743 0.27,0.206 0.081,-0.51 0.243,0.607 0.548,0.136 1.305,-0.623 -0.014,-0.938"
     id="path14" />
</g>
<g
   id="g20"
   transform="translate(-185.80896,-442.56314)">
  <path
     fill="none"
     stroke="#000000"
     stroke-width="4"
     stroke-linecap="round"
     stroke-linejoin="round"
     d="m -280.71,500.502 -0.71,-1.087 -0.089,0.571 0.177,0.911 0.236,-0.788 0.368,0.139 -0.188,1.006 0.073,-0.473 0.553,0.554 -0.28,0.091 -0.07,1.444 0.441,0.993 0.049,2.035 0.424,0.887 -0.237,2.927 0.526,4.856 -0.453,1.369 0.121,7.827 0.589,2.619 -0.143,3.249 0.596,3.05 -0.186,5.545 0.586,5.206 -0.1,8.648 -0.492,5.911 0.191,2.052 0.256,0.142 -0.485,5.355 0.004,0.272 0.24,-0.103 0.141,3.234 -0.528,4.788 -0.481,0.854 0.267,5.872 -0.288,2.06 0.192,3.261 -0.312,1.542 0.423,0.819 -0.176,0.396 -0.135,-0.291 -0.038,3.386 0.316,0.7 -0.283,0.864 0.165,0.616 0.051,-0.549 -0.188,2.702 0.435,2.543 -0.452,1.538 0.259,0.755 0.108,-0.262 -0.15,2.102 -0.014,-0.556 0.289,0.79 0.036,1.751 0.227,0.079 0.073,-0.376 -0.047,0.674 0.17,-0.301 -0.315,-0.134 0.354,0.056 0.107,-0.301 -0.225,0.385 0.198,-0.093 0.025,0.329 -0.02,-0.889 0.268,-0.04 0.069,0.44 1.227,-0.612 0.421,-1.075 0.411,-0.226 0.168,0.283 0.597,-1.21 -0.033,-0.566 0.58,0.157 1.037,-2.615 1.095,-2.002 0.101,0.242 0.383,-1.55 0.726,-0.156 0.36,-1.362 1.19,-1.422 -0.107,-0.834 0.321,0.465 0.401,-0.808 0.32,-1.725 0.687,-0.63 0.947,-1.99 1.661,-1.168 0.383,-1.144 0.367,-0.078 0.714,-1.221 0.579,-0.314 -0.031,0.281 -0.061,-0.922 0.682,-0.504 1.06,-2.448 0.145,0.22 0.108,-0.407 0.038,0.414 0.213,-1.217 1.039,-1.677 2.683,-1.702 -0.091,-0.693 0.519,-0.524 0.246,0.218 0.233,-0.94 0.131,0.217 0.326,-0.202 0.286,-1.205 0.717,-0.919 0.31,-1.524 0.053,0.2 0.32,-0.226 0.071,0.32 0.796,-1.742 -0.175,-0.561 1.396,-1.047 1.042,-1.68 1.124,-0.979 0.952,-0.523 0.069,0.23 0.313,-0.297 -0.138,-0.466 0.457,0.162 0.747,-1.236 0.041,-0.891 0.459,-0.073 0.582,-1.098 0.195,0.269 0.08,-1.653 0.225,0.233 0.539,-0.205 0.049,-0.957 1.226,-0.728 -0.003,-0.965 0.503,-0.036 0.349,0.496 0.456,-1.58 0.236,0.364 -0.209,-0.273 0.493,-0.344 0.227,0.415 0.22,-1.926 0.371,0.262 -0.021,-0.685 0.177,0.36 -0.286,0.343 0.043,-1.714 -0.228,0.057 -1.435,-3.748 -0.158,0.171 -0.364,-1.08 -0.201,0.083 -1.057,-3.117 -3.402,-6.324 -1.048,-2.988 -0.084,-1.317 -0.86,-1.235 -0.655,-2.426 -0.758,-0.934 -1.023,-2.445 -1.588,-1.978 -1.519,-3.026 -0.399,-0.162 -0.447,-0.949 -0.088,0.305 -0.209,-0.126 -0.354,-1.166 -0.528,-0.417 -0.126,-0.82 -1.019,-1.247 -0.093,0.203 -0.599,-0.357 -0.93,-1.209 -2.078,-4.867 -1.21,-0.785 -1.436,-1.981 -0.748,-0.589 -0.037,0.354 -1.493,-1.637 -0.345,-0.875 -0.602,0.185 -3.611,-4.009 -0.529,0.105 -0.344,-0.492 -0.331,0.012 -0.598,-1.103 -0.265,-1.497 -0.193,0.157 0.284,-0.233"
     id="path18" />
</g>
<g
   id="g24"
   transform="translate(-185.80896,-442.56314)">
  <path
     fill="none"
     stroke="#000000"
     stroke-width="4"
     stroke-linecap="round"
     stroke-linejoin="round"
     d="m -242.838,503.971 0.006,-1.787 -0.431,-0.661 0.199,0.379 -0.017,-0.736 -0.424,1.178 0.285,0.088 -0.34,1.45 -0.023,3.343 0.782,12.178 -0.279,2.288 0.779,3.337 0.05,6.034 0.28,1.396 -0.279,1.283 0.042,3.743 0.393,1.516 -0.423,0.723 0.326,1.559 -0.346,2.749 -0.35,0.115 -0.073,0.733"
     id="path22" />
</g>
<g
   id="g28"
   transform="translate(-185.80896,-442.56314)">
  <path
     fill="none"
     stroke="#000000"
     stroke-width="4"
     stroke-linecap="round"
     stroke-linejoin="round"
     d="m -243.858,557.968 0.686,0.969 -0.012,-0.469 -0.119,0.185 -0.074,-0.397 0.204,0.659 -0.33,0.122 -0.05,0.648 0.561,1.203 -0.032,4.167 -0.075,0.709 -0.17,-0.23 -0.085,0.218 0.128,5.792 -0.392,1.684 0.249,2.326 -0.42,1.767 0.308,1.131 0.112,7.552 0.339,3.097 -0.249,1.715 0.25,2.939 -0.279,1.1 0.35,1.349 -0.006,1.958 -0.434,1.714 0.631,1.221 -0.145,1.265 0.823,5.769 -0.123,0.925 0.163,-0.309 0.458,0.666 -0.292,0.333 -0.03,-0.388 0.62,-0.096 0.034,0.257 0.549,-1.499 0.275,0.197 0.933,-0.594 0.218,0.421 1.124,-2.98 1.298,-1.377 0.479,-1.627 1.346,-2.222 0.361,0.222 0.547,-1.497 0.714,-0.729 0.076,-0.589 1.317,-1.917 0.473,-1.582 2.342,-3.901 0.555,-2.407 0.94,-1.594 0.253,0.137 0.771,-2.26 0.629,-0.36 0.452,-1.265 0.105,0.237 0.772,-0.162 0.226,0.225 1.044,-1.885 -0.193,-0.235 0.643,-0.64 0.49,-1.653 0.537,-0.795 0.178,0.151 0.866,-2.739 -0.033,-0.728 0.561,-1.117 0.297,-0.118 0.344,0.317 0.274,-1.726 0.91,-0.673 -0.074,-0.289 0.32,-0.066 0.766,-1.44 0.429,0.064 0.747,-2.128 0.041,-1.185 1.212,-0.302 0.064,0.315 0.078,-1.095 0.632,-1.182 0.354,-0.324 0.43,0.241 0.128,-1.423 0.416,0.026 0.043,0.438 0.112,-0.754 -0.302,-0.446 0.195,-0.633 0.102,0.448 -0.005,-0.838 -0.715,-2.529 -3.138,-5.205 -1.709,-3.475 -0.323,-0.008 -1.471,-2.525 -0.679,-0.394 -0.626,-1.128 -0.29,0.154 -1.269,-3.61 -1.855,-3.223 -0.449,-1.34 -0.367,-0.198 -4.41,-11.741 -2.373,-3.877 0.131,-0.611 -1.559,-1.746 -1.447,-2.569 -0.757,-0.597 -1.537,-2.522 -0.181,-1.145 -1.381,-2.977 -0.762,-2.502 -2.908,-4.001 -0.227,-1.018 0.534,0.11 0.361,-0.387 0.42,0.338"
     id="path26" />
</g>
<g
   id="g32"
   transform="translate(-185.80896,-442.56314)">
  <path
     fill="none"
     stroke="#000000"
     stroke-width="4"
     stroke-linecap="round"
     stroke-linejoin="round"
     d="m -212.961,508.504 0.048,-1.691 -0.259,0.132 0.341,0.349 -0.161,0.482 -0.135,-0.521 -0.074,5.887 0.292,3.853 -0.328,2.716 0.26,4.075 0.65,2.896 -0.4,7.254 0.332,5.584 -0.286,1.733 0.348,1.024 -0.241,0.515 0.163,3.175 -0.276,0.786 0.402,2.32 -0.427,0.744 -0.294,3.087 0.889,1.02"
     id="path30" />
</g>
<g
   id="g36"
   transform="translate(-185.80896,-442.56314)">
  <path
     fill="none"
     stroke="#000000"
     stroke-width="4"
     stroke-linecap="round"
     stroke-linejoin="round"
     d="m -211.591,563.442 -0.165,0.909 -0.204,-0.036 0.498,0.584 -0.212,-0.215 -0.087,0.89 0.349,2.716 -0.377,3.529 0.544,6.42 -0.453,4.597 0.195,2.515 -0.468,1.35 0.146,1.233 -0.626,4.207 0.297,1.946 -0.639,4.896 0.449,0.716 -0.019,2.329 -0.331,0.816 0.498,2.57 -0.497,1.342 0.357,0.459 0.119,1.409 0.141,-0.788 0.111,0.302 0.221,-0.354 0.122,0.821 -0.079,-0.33 0.705,0.225 0.399,-0.751 0.547,-0.067 0.292,-0.452 0.697,0.048 0.208,0.326 0.541,-0.81 0.941,-0.56 0.194,-0.783 1.456,-0.47 0.985,-0.829 3.634,-4.961 0.267,-0.84 0.914,-0.514 0.437,-0.855 0.176,0.193 0.575,-1.865 1.003,-1.603 0.328,-1.403 0.906,-0.993 0.918,-1.902 0.356,-2.129 1.471,-3.363 0.479,-0.61 0.379,0.079 1.253,-4.3 0.482,-0.366 0.525,-1.369 0.355,0.092 1.003,-2.694 -0.002,-0.724 1.624,-1.888 0.586,-3.256 0.989,-1.7 0.138,0.174 1.69,-4.29 0.804,-0.758 0.182,0.275 0.294,-2.5 0.415,0.405 0.219,-0.905 -0.284,-0.283 0.335,-0.013 -0.163,0.48 -0.171,-0.343 -0.005,-1.314 -0.519,-0.613 -0.011,-0.734 -1.022,-1.621 -1.468,-3.54 -0.407,-0.301 -1.511,-4.652 -1.406,-1.421 -2.123,-4.482 -0.492,-0.484 -1.502,-3.819 -1.04,-1.308 -0.645,-2.439 -0.888,-1.886 -0.597,-0.532 -0.099,0.244 -1.254,-2.98 -3.579,-5.403 -0.633,-0.834 -0.293,0.137 -0.553,-0.934 -0.486,-0.053 -1.373,-3.813 -0.76,-0.814 -0.399,0.06 -1.867,-4.622 -1.585,-1.712 -0.478,-0.157 -0.407,-1.043 -0.369,-0.33 0.063,0.426 -0.422,-1.78"
     id="path34" />
</g>
<g
   id="g40"
   transform="translate(-185.80896,-442.56314)">
  <path
     fill="none"
     stroke="#000000"
     stroke-width="4"
     stroke-linecap="round"
     stroke-linejoin="round"
     d="m -141.672,482.575 -1.086,0.135 0.408,-0.329 0.652,0.53 -0.266,0.102 0.279,1.138 -0.07,11.161 -0.408,4.577 0.396,3.633 -0.464,10.313 0.497,3.875 -0.395,3.181 0.384,13.491 0.838,11.839 0.017,2.715 -0.459,3.123 0.374,1.674 -0.401,5.447 0.414,3.364 -0.675,7.461 -0.069,3.484 0.319,2.899 -0.483,5.391 0.136,7.041 -0.271,1.744 0.303,3.987 -0.165,-0.361 -0.222,1.763 0.197,0.515 -0.485,4.455 -0.151,4.501 0.043,0.745 0.318,0.268 -0.253,-0.036 -0.231,1.741 0.178,2.026 0.225,-0.964 0.207,0.943 -0.01,-0.872 2.063,-0.097 1.314,0.164 1.084,0.606 0.741,-0.331 0.701,0.111 0.351,-0.335 1.447,0.651 1.978,0.344 2.26,-0.638 1.881,0.278 0.721,-0.343 2.524,0.91 5.253,0.266 0.564,0.309 2.301,-0.704 1.266,0.087 0.686,-0.492 1.345,0.327 0.596,0.621 0.257,-0.317 1.185,-0.019 1.661,-0.638 1.503,0.055 6.021,0.728 0.541,0.414 0.904,-0.275 0.426,0.256 0.6531,-0.372 1.1539,0.157 0.5625,-0.311 1.4379,0.827 2.0807,-0.023 1.8399,-0.477 3.3374,0.727 1.6663,-0.002 2.1736,0.79 3.2732,-0.154 0.6435,-0.712 0.2467,0.301 1.1872,-0.105 0.3082,0.308 0.8549,0.013 0.5033,0.467 3.5764,-0.465 1.4874,0.531 1.646,-0.255 1.2903,0.516 2.0146,0.112 0.5951,0.336 1.2163,-0.311 0.4934,0.321 1.695,-0.81 2.8724,0.862 4.1073,-0.553 3.8601,-1.409 2.8109,0.206 0.5668,0.865 0.239,-0.347 1.0518,0.086 0.4759,-0.373 1.1251,0.426 0.5437,-0.66 0.4956,0.584 0.545,0.187 0.1797,-0.24 0.5341,0.475 1.091,0.087 0.5004,0.374 2.2711,-0.551 0.2882,0.266 0.9803,-0.585 0.719,-0.023 0.4719,0.531 0.7552,0.083 1.9361,-0.437 0.5395,-0.538 1.665,0.302 2.5754,-0.952 2.7975,0.266 1.4173,-0.619 0.9342,0.032 0.3772,0.535 1.0584,-0.453 0.4176,0.488 1.293,-0.862 4.269,1.12 0.7704,-0.103 0.2416,0.41 0.9491,-0.424 1.0287,0.136 1.2029,0.619 0.3598,-0.156 0.1313,-0.572 0.0843,0.47 0.1149,-0.209 0.82,0.78 1.3631,-0.197 0.3769,0.285 0.897,-0.139 0.2696,0.283 0.8747,-0.723 0.49072,0.299 0.06244,0.559 0.80548,-0.593 -0.04699,0.546 0.1159,-0.947 0.56116,-0.464 0.09424,0.231 1.08581,-13.126 -0.0733,-7.737 0.42615,-4.118 -0.94751,-33.404 0.13928,-8.373 -0.32623,-2.214 -0.07929,-7.331 -2.13196,-20.267 -0.07373,-3.644 -0.7265,-2.906 -1.24257,-8.711 0.4677,-5.015 -0.1246,-3.941 0.559,-4.681 -0.0581,-3.698 -0.129,0.33 -0.5932,-1.049"
     id="path38" />
</g>
<g
   id="g44"
   transform="translate(-185.80896,-442.56314)">
  <path
     fill="none"
     stroke="#000000"
     stroke-width="4"
     stroke-linecap="round"
     stroke-linejoin="round"
     d="m -137.795,480.254 0.511,0.009 0.597,-0.361 0.054,-0.413 -0.05,0.335 0.162,-0.33 0.23,0.148 0.453,-0.525 2.907,1.405 1.303,-0.024 5.266,1.532 2.648,-0.34 0.496,-0.64 1.494,0.023 4.054,0.507 2.919,1.105 1.239,-0.249 0.246,-0.315 3.155,0.191 1.398,-0.582 2.574,-0.35 3.649,0.784 3.7761,-0.582 1.1866,0.264 0.4426,0.522 0.8012,-0.548 1.2442,0.045 0.3222,-0.291 1.4267,0.553 4.5782,0.569 2.8693,-0.707 0.963,-0.537 1.3385,0.603 1.0742,0.009 1.7372,-0.397 2.7708,0.313 4.2574,-0.477 2.0166,0.153 0.2667,-0.433 0.4068,0.484 1.3841,0.089 0.5226,0.35 4.3115,-1.338 4.0325,0.031 0.4117,0.412 1.4939,-0.826 3.9538,-0.103 1.5372,-0.592 2.7584,-0.162 1.8644,0.59 2.14,-0.421 0.3835,-0.437 1.132,0.127 0.4887,-0.387 1.116,0.422 3.8937,-0.413 2.3217,0.319 0.2322,0.351 0.8481,-0.153 0.3022,0.218 0.2286,-0.245 1.4199,1.034 1.5573,0.306 0.7034,0.023 0.2289,-0.315 1.3647,0.713 0.2335,0.617 2.6376,0.427 1.278,0.585 1.768,-0.211 0.3073,0.281 0.8656,-0.536 0.2389,0.219 -0.0468,-0.273 -0.0353,1.754"
     id="path42" />
</g>
<g
   id="g48"
   transform="translate(-185.80896,-442.56314)">
  <path
     fill="none"
     stroke="#000000"
     stroke-width="4"
     stroke-linecap="round"
     stroke-linejoin="round"
     d="m -93.1075,584.31 -0.0655,1.398 0.6068,-0.595 0.2778,0.913 0.0436,-1.634 0.1087,0.797 0.3368,-2.234 0.5806,-14.519 0.8007,-7.586 -0.0464,-9.746 0.604,-12.201 -0.1511,-13.329 -0.4468,-1.189 -0.5269,-6.897 0.0973,-2.288 -0.3257,-0.559 0.1744,-6.84 -0.2193,-2.971 -0.2162,0.275 0.2585,0.293 -0.2428,-0.287 -0.0919,0.589 -0.359,-0.357 -1.2617,0.641 -1.3056,1.181 -0.2622,0.896 -1.141,0.712 -0.4563,0.866 -0.34,-0.34 -0.4941,1.123 -0.3429,-0.054 -0.8957,2.007 -1.8066,1.034 -1.203,2.162 -1.497,1.55 -0.064,0.684 -0.803,0.792 -0.091,-0.355 -1.419,2.228 -1.494,1.366 -1.384,2.086 -0.58,0.284 -0.321,0.882 -0.564,0.026 -0.993,0.876 -0.39,-0.125 -1.976,3.137 -1.342,0.962 -1.397,1.83 -0.602,0.431 -0.136,-0.248 -2.193,3.807 -0.186,-0.197 -0.31,0.502 -0.036,-0.274 -0.453,0.871 -1.928,0.976 -0.199,-0.22 -1.055,1.79 -0.269,-0.054 -0.017,0.553 -0.232,-0.265 -0.603,0.391 -1.55,3.596 0.226,1.323 0.711,1.198 0.305,-0.126 0.501,1.442 1.851,1.522 0.539,-0.233 0.943,1.438 2.291,2.135 1.848,2.392 2.161,3.919 0.598,0.493 2.296,4.64 2.471,1.822 2.018,3.841 2.591,4.013 0.267,0.94 1.255,0.48 1.458,2.177 0.09,0.766 0.716,0.309 3.8098,4.803 0.5254,1.525 0.4774,-0.696 0.3648,0.299 0.1066,-0.568 1.0394,2.534 0.5773,0.105 1.8656,1.377 0.2084,-0.378 0.3879,0.288 0.8033,-0.531"
     id="path46" />
</g>
<g
   id="g52"
   transform="translate(-185.80896,-442.56314)">
  <path
     fill="none"
     stroke="#000000"
     stroke-width="4"
     stroke-linecap="round"
     stroke-linejoin="round"
     d="m -88.297,543.02 0.3426,-0.246 0.0602,0.907 0.0622,-0.473 0.4273,-0.202 -0.0353,0.743 0.0104,-0.832 0.2361,0.187 -0.0473,-0.317 0.0602,0.474 2.1432,-2.23 1.6404,-2.718 0.4095,0.49 1.0982,-1.694 1.6392,-1.207 1.0781,-1.275 0.0692,-1.102 1.2621,-2.534 0.2593,0.081 0.5841,-0.718 0.2888,0.444 1.0463,-2.702 0.0564,0.2 0.9442,-0.739 2.0299,-2.56 0.5864,-1.404 4.4287,-5.415 1.0277,-2.079 0.2631,-0.114 0.116,0.272 0.3677,-0.304 0.2201,0.569 0.9454,-1.589 0.5493,-0.039 1.576,-1.225 0.9828,-1.663 0.2648,0.063 0.6117,-0.757 0.164,0.464 0.2374,-0.403 0.0542,0.312 0.4902,-1.659 0.5759,0.04 0.2822,-0.809 0.7083,-0.666 0.0947,-0.674 0.0756,0.942 1.9063,-2.855 0.3314,-0.029 0.2763,0.431 0.52,-0.87 -0.0422,-0.482 0.7889,-0.553 0.368,0.006 0.0035,0.262 0.1692,-0.24 -0.0352,0.323 -0.069,-0.565 0.0774,0.334 1.1099,-0.825 0.2945,0.135 -0.1097,-0.325 0.0295,0.509 -0.2199,-0.484 0.2022,0.303 0.0564,-0.538 0.2232,0.812 0.1712,-0.584 0.4197,3.352 -0.3654,7.83 -0.379,1.552 -0.1494,17.374 -0.3147,1.878 -0.4698,13.993 1.0636,10.505 0.2214,14.611 0.2058,-0.175 0.0535,0.577 0.1428,-0.237 0.209,2.59 0.5392,0.753 -0.1639,0.613 0.146,0.935 0.2104,-0.453 0.1909,0.682 0.2557,2.742 0.1272,-0.246 0.1783,0.324 0.0956,-0.367 -0.292,0.969 0.5002,1.071 -0.0049,1.183 0.1717,-1.06 -0.1795,0.716 -0.0517,-0.462 0.2177,0.105 -0.3164,0.022 0.0187,0.369 -0.06,-0.255 0.2172,-0.772 -0.1614,-0.175 -0.1136,0.571 -1.088,-0.473 -0.2637,0.275 -1.6495,-2.819 -0.3683,-0.041 -0.8211,-0.998 -1.4993,-2.729 -0.7124,-0.912 -0.4213,-0.1 -1.1399,-2.039 -0.3412,-1.281 -0.4189,-0.042 -0.5792,-0.644 -0.3821,0.374 -0.188,-0.548 -0.9191,-0.499 -1.2115,-2.464 -3.591,-4.84 -2.2736,-2.49 -0.2192,0.141 -0.969,-1.645 -0.8974,-0.569 -0.4541,-0.919 -1.2655,-0.888 -0.5227,-1.245 -0.583,-0.377 -0.8473,-2.466 -1.1713,-1.43 -4.5129,-3.833 -0.6512,-0.908 -0.4935,-1.828 -0.8776,-0.694 -0.2649,0.351 -1.6105,-2.732 -1.6649,-0.57 1.043,-1.417"
     id="path50" />
</g>
<g
   id="g56"
   transform="translate(-185.80896,-442.56314)">
  <path
     fill="none"
     stroke="#000000"
     stroke-width="4"
     stroke-linecap="round"
     stroke-linejoin="round"
     d="m -24.6213,483.022 0.0687,0.411 3.6263,-0.621 3.3049,-0.023 0.2944,0.261 0.9466,-0.248 2.1967,-1.583 1.584,-1.748"
     id="path54" />
</g>
<g
   id="g60"
   transform="translate(-185.80896,-442.56314)">
  <path
     fill="#000000"
     d="m 105.806,619.691 c 0,0 0,0 0,0 3.553,-1.173 7.024,-2.635 10.66,-3.52 0.394,-0.095 0.606,0.626 1.008,0.681 1.66,0.228 3.355,0.278 5.026,0.147 1.379,-0.108 2.684,-1.006 4.059,-0.86 1.425,0.152 2.512,1.738 3.945,1.71 2.685,-0.051 5.168,-1.511 7.82,-1.936 4.959,-0.795 10.06,-0.656 14.97,-1.716 0.887,-0.191 1.623,-1.072 1.92,-1.929 0.977,-2.818 1.802,-5.785 1.785,-8.768 -0.051,-9.026 -1.767,-17.983 -1.985,-27.007 -0.444,-18.324 -0.265,-36.662 10e-4,-54.99 0.011,-0.735 0.872,-1.311 0.827,-2.046 -0.55,-8.808 -1.441,-17.6 -2.598,-26.35 -0.374,-2.826 -0.757,-5.747 -1.987,-8.319 -0.749,-1.567 -2.26,-2.716 -3.731,-3.639 -0.58,-0.364 -1.451,-0.317 -2.054,0.009 -0.414,0.223 -0.554,0.883 -0.441,1.34 0.324,1.313 0.981,2.536 1.684,3.692 0.372,0.611 1.343,0.839 1.496,1.537 1.052,4.808 1.48,9.734 2.04,14.624 0.651,5.689 1.362,11.384 1.591,17.106 0.029,0.735 -0.816,1.311 -0.827,2.046 -0.266,18.662 -0.453,37.332 -10e-4,55.99 0.21,8.692 1.412,17.332 1.985,26.007 0.045,0.687 0.038,1.394 -0.131,2.061 -0.402,1.576 -0.025,4.11 -1.57,4.622 -6.641,2.204 -13.855,1.989 -20.805,2.802 -0.67,0.078 -1.364,0.026 -2.019,-0.133 -0.696,-0.169 -1.262,-0.851 -1.978,-0.836 -1.697,0.036 -3.299,0.964 -4.996,0.983 -2.038,0.022 -4.044,-1.2 -6.053,-0.86 -3.784,0.639 -7.195,2.702 -10.894,3.723 -0.979,0.27 -2.041,0.275 -3.046,0.124 -5.1545,-0.772 -10.2655,-1.818 -15.3669,-2.884 -1.2416,-0.259 -2.3857,-0.947 -3.6462,-1.088 -1.6755,-0.187 -3.3806,-0.068 -5.0566,0.115 -4.2956,0.467 -8.5712,1.118 -12.8326,1.832 -1.3905,0.234 -2.6984,0.964 -4.1076,1.009 -0.7099,0.023 -1.2602,-0.782 -1.9699,-0.813 -0.7082,-0.03 -1.3184,0.644 -2.0272,0.642 -0.3906,-10e-4 -0.5964,-0.551 -0.9739,-0.652 -0.6544,-0.173 -1.3536,-0.224 -2.0261,-0.145 -1.3744,0.162 -2.6834,0.989 -4.0612,0.861 -1.7215,-0.161 -3.1865,-1.479 -4.9017,-1.696 -0.727,-0.092 -1.3129,0.732 -2.0406,0.818 -1.6541,0.195 -3.3314,0.045 -4.9967,0.014 -0.6769,-0.013 -1.3684,0.015 -2.0259,-0.147 -0.695,-0.171 -1.2686,-0.737 -1.9774,-0.837 -1.3181,-0.185 -2.6742,-0.18 -3.993,0 -0.7277,0.099 -1.3124,0.888 -2.044,0.823 -2.6827,-0.239 -5.2345,-1.304 -7.8972,-1.708 -1.4955,-0.227 -3.4729,0.897 -4.5343,-0.181 -1.5799,-1.604 -1.6868,-4.222 -1.9981,-6.452 -0.0984,-0.705 0.6545,-1.279 0.8222,-1.971 0.1595,-0.658 0.1357,-1.349 0.1469,-2.026 0.0331,-1.998 0.203,-4.009 -0.0142,-5.997 -0.1144,-1.046 -0.9151,-1.955 -0.9696,-3.007 C 12.7392,587.171 12.9647,581.832 13,576.5 c 0.0089,-1.343 -0.0695,-2.701 0.1479,-4.026 0.1159,-0.706 0.8054,-1.262 0.8369,-1.978 0.2497,-5.658 0.2336,-11.333 10e-5,-16.993 -0.0296,-0.716 -0.784,-1.286 -0.784,-2.003 0,-0.717 0.7458,-1.287 0.784,-2.004 0.2302,-4.326 0.291,-8.673 0.0141,-12.996 -0.3857,-6.025 -1.7207,-11.97 -1.999,-18 -0.384,-8.323 -0.2777,-16.669 0.0152,-24.996 0.037,-1.053 0.8568,-1.96 0.9696,-3.008 0.214,-1.986 0.1286,-3.999 0,-5.992 -0.0335,-0.52 -0.2083,-1.042 -0.4822,-1.485 -0.2296,-0.37 -0.5499,-0.779 -0.9763,-0.87 -0.9955,-0.213 -2.20794,-0.558 -3.05418,0.008 -0.6603,0.442 -0.52558,1.548 -0.45592,2.339 0.06275,0.713 0.66545,1.283 0.8359,1.978 0.16127,0.658 0.14589,1.349 0.14589,2.026 0,0.677 0.01554,1.368 -0.14589,2.026 -0.17064,0.695 -0.81693,1.262 -0.83694,1.978 -0.2609,9.326 -0.42165,18.669 -0.00137,27.989 0.24219,5.371 1.62072,10.643 1.98526,16.007 0.29375,4.322 0.21605,8.67 -0.01419,12.996 -0.03811,0.717 -0.78401,1.287 -0.78401,2.004 0,0.717 0.75443,1.287 0.78401,2.003 0.23354,5.66 0.24964,11.335 -2e-5,16.993 -0.03155,0.716 -0.69872,1.276 -0.83694,1.978 -0.19503,0.991 -0.14116,2.016 -0.14786,3.026 -0.03755,5.665 -0.26346,11.338 0.01512,16.996 0.05178,1.052 0.85686,1.96 0.96968,3.007 0.21396,1.987 0.20866,4.007 0,5.993 -0.07475,0.712 -0.66811,1.282 -0.83692,1.978 -0.15908,0.655 -0.23441,1.352 -0.13302,2.019 0.44889,2.953 0.47938,6.091 1.7752,8.782 0.6475,1.344 2.2955,1.994 3.6812,2.548 0.3741,0.149 0.6132,-0.571 1.0025,-0.676 0.6517,-0.174 1.3524,-0.233 2.0194,-0.132 3.3613,0.509 6.6253,1.635 10.0099,1.955 0.7087,0.067 1.2679,-0.71 1.9708,-0.822 1.3238,-0.211 2.6838,-0.25 4.0193,-0.134 5.6861,0.493 11.31,1.666 17.0101,1.956 1.0455,0.053 1.9502,-0.912 2.9967,-0.939 0.7109,-0.018 1.2619,0.794 1.9728,0.812 1.0431,0.026 2.0113,-0.712 3.0544,-0.686 0.7101,0.018 1.2636,0.889 1.9698,0.813 5.693,-0.611 11.2706,-2.043 16.9403,-2.841 1.3395,-0.189 2.723,-0.342 4.0566,-0.115 6.0314,1.025 11.8954,2.94 17.9445,3.855"
     id="path58" />
</g>
<g
   id="g64"
   transform="translate(-185.80896,-442.56314)">
  <path
     fill="none"
     stroke="#000000"
     stroke-width="4"
     stroke-linecap="round"
     stroke-linejoin="round"
     d="m 12.7997,479.54 -0.569,-0.541 -0.4633,0.441 0.3674,0.454 0.7317,-0.286 0.9593,1.515 1.7877,-0.128 2.4328,0.485 4.8934,-0.111 1.2202,0.261 0.7495,-0.272 2.1444,0.6 1.5325,-0.073 0.7971,0.438 4.8454,-0.786 2.0586,0.621 3.4989,0.002 2.4517,-0.24 4.464,-1.244 1.9521,0.598 3.3087,0.003 0.7738,-0.312 7.4609,0.355 3.6177,-0.455 0.8732,0.318 0.5794,-0.222 1.8755,0.711 2.0151,-0.016 2.0543,-0.712 5.6691,-0.648 1.7395,0.469 2.9059,0.154 0.5756,-0.305 4.3024,0.938 4.0101,-0.633 0.6616,-0.364 2.3027,-0.18 2.3712,0.634 0.5619,0.48 1.9139,0.182 1.6916,-0.297 5.7178,1.265 2.147,0.034 0.594,-0.345 4.203,0.312 1.733,-0.835 0.797,0.195 0.307,-0.225 1.388,0.526 2.201,0.239 2.922,-0.082 0.474,-0.325 2.467,0.611 0.482,0.436 1.001,-0.084 0.502,0.417 1.363,-0.172 0.787,0.254 0.261,-0.317 1.003,0.743 2.268,0.204 0.458,0.313 1.893,-0.486 0.827,0.575 0.824,-0.45 1.709,-0.256 0.503,-0.449 3.797,1.395 1.506,-0.992 1.026,-1.708"
     id="path62" />
</g>
<g
   id="g68"
   transform="translate(-185.80896,-442.56314)">
  <path
     fill="#000000"
     d="m 123.497,601.854 c 0,0 0,0 0,0 1.509,-1.128 3.234,-2.014 4.527,-3.383 0.903,-0.957 1.694,-2.152 1.923,-3.448 1.439,-8.112 2.295,-16.324 3.039,-24.53 0.271,-2.983 0.15,-5.994 0,-8.986 -0.544,-10.898 -0.52,-21.869 -2.08,-32.668 -0.717,-4.965 -2.989,-9.581 -4.703,-14.296 -0.842,-2.314 -1.846,-4.572 -2.956,-6.77 -0.534,-1.058 -1.165,-2.087 -1.962,-2.963 -2.569,-2.824 -4.938,-5.959 -8.1,-8.098 -3.195,-2.16 -6.945,-3.431 -10.63,-4.568 -0.687,-0.212 -1.336,0.652 -2.055,0.655 -0.389,0.002 -0.6023,-0.525 -0.9727,-0.642 -0.3351,-0.106 -0.722,-0.114 -1.0545,0 -0.3676,0.126 -0.5764,0.558 -0.9435,0.685 -0.3437,0.119 -0.7331,0.085 -1.0915,0.022 -4.9942,-0.881 -9.8994,-2.336 -14.9445,-2.85 -4.3076,-0.439 -8.6676,-0.257 -12.9898,10e-4 -1.0486,0.063 -1.9535,0.924 -3.0035,0.954 -0.7319,0.021 -1.3116,-0.862 -2.0419,-0.809 -4.2754,0.307 -8.5718,0.8 -12.7222,1.872 -1.8105,0.467 -3.3427,1.688 -4.926,2.683 -0.4391,0.276 -0.8157,0.667 -1.0987,1.101 -1.5582,2.394 -2.6494,5.096 -4.4035,7.35 -0.6352,0.816 -1.8884,0.933 -2.6154,1.668 -0.825,0.835 -1.4396,1.877 -1.939,2.939 -1.0858,2.308 -2.2586,4.631 -2.7942,7.126 -1.3873,6.462 -2.3684,13.024 -2.9453,19.608 -0.4069,4.645 -0.1374,9.328 0.0019,13.989 0.0142,0.474 0.0397,1.121 0.4566,1.346 0.6011,0.325 1.3797,0.142 2.0496,0.008 0.2837,-0.056 0.6351,-0.264 0.6699,-0.551 0.963,-7.955 1.2973,-15.978 2.2938,-23.928 0.4843,-3.864 1.0337,-7.751 2.1448,-11.484 0.6475,-2.175 1.7971,-4.2 3.0813,-6.071 0.9601,-1.399 2.5316,-2.286 3.5732,-3.626 1.3056,-1.679 2.2113,-3.637 3.4301,-5.38 0.2966,-0.424 0.6645,-0.816 1.0992,-1.097 1.002,-0.648 1.997,-1.443 3.1697,-1.663 5.4539,-1.025 10.9879,-1.639 16.5229,-2.036 3.9876,-0.287 8.018,-0.435 11.9935,-0.013 5.3971,0.573 10.6331,2.22 16.0063,2.985 1.3272,0.189 2.6963,0.081 4.0194,-0.133 0.401,-0.065 0.619,-0.797 1.008,-0.682 2.985,0.883 5.907,2.053 8.643,3.536 1.08,0.586 1.673,1.811 2.633,2.578 0.715,0.571 1.709,0.761 2.356,1.407 0.692,0.693 0.935,1.734 1.549,2.498 0.756,0.941 1.972,1.518 2.534,2.585 1.673,3.177 2.822,6.605 4.077,9.969 1.303,3.494 3.116,6.896 3.594,10.595 1.421,10.986 1.497,22.105 2.066,33.168 0.12,2.326 0.227,4.669 0,6.986 -0.805,8.212 -1.64,16.437 -3.094,24.558 -0.165,0.922 -0.994,1.622 -1.702,2.234 -0.775,0.67 -1.637,1.538 -2.662,1.538 -0.772,0 -1.577,-0.783 -1.732,-1.54 -1.682,-8.229 -1.977,-16.703 -3.678,-24.929 -0.48,-2.323 -1.653,-4.469 -2.825,-6.531 -0.407,-0.715 -1.007,-1.649 -1.83,-1.656 -1.657,-0.014 -3.2,0.913 -4.709,1.601 -0.431,0.197 -0.815,0.573 -1.003,1.008 -1.082,2.495 -2.187,5.018 -2.76,7.676 -1.26,5.85 -1.103,11.983 -2.717,17.745 -0.2859,1.022 -1.7208,1.295 -2.7179,1.659 -0.4287,0.157 -0.9384,0.009 -1.3587,-0.169 -0.8679,-0.368 -2.2689,-0.51 -2.4351,-1.437 -1.4897,-8.315 -1.2897,-16.852 -2.3433,-25.233 -0.1013,-0.805 -0.4291,-1.717 -1.1018,-2.172 -1.4251,-0.962 -3.1547,-1.415 -4.8236,-1.83 -0.6637,-0.165 -1.4044,-0.109 -2.0478,0.123 -0.9533,0.343 -2.044,0.716 -2.6116,1.555 -1.6387,2.423 -3.0993,5.073 -3.7923,7.915 -1.4689,6.024 -1.564,12.307 -2.628,18.416 -0.1921,1.103 -0.432,2.288 -1.1303,3.163 -0.6657,0.835 -1.7649,1.218 -2.7294,1.675 -0.3214,0.153 -0.7043,0.124 -1.06,0.123 -0.6749,-0.003 -1.3729,0.058 -2.0204,-0.133 -0.6047,-0.178 -1.1842,-0.507 -1.6386,-0.944 -0.4642,-0.447 -0.9092,-0.999 -1.0377,-1.63 -1.4861,-7.297 -2.3774,-14.704 -3.7785,-22.018 -0.0993,-0.519 -0.3937,-0.994 -0.7106,-1.417 -1.0459,-1.394 -2.1158,-2.785 -3.3581,-4.007 -1.0427,-1.026 -2.0057,-2.537 -3.4593,-2.701 -0.9927,-0.112 -1.5564,1.278 -2.1741,2.063 -0.1956,0.249 -0.391,0.694 -0.1817,0.931 1.45,1.643 3.3762,2.809 4.8855,4.397 0.4877,0.513 0.9092,1.153 1.0486,1.847 1.4743,7.335 2.1763,14.816 3.7696,22.126 0.2914,1.337 0.9372,2.646 1.8517,3.663 1.032,1.149 2.387,2.035 3.8087,2.637 0.358,0.152 0.6121,-0.604 1.0008,-0.598 0.4034,0.005 0.6476,0.744 1.0342,0.628 2.3027,-0.687 4.577,-1.605 6.5976,-2.905 0.9635,-0.62 1.6728,-1.651 2.1201,-2.706 0.8932,-2.106 1.4375,-4.36 1.8321,-6.613 0.8669,-4.949 1.0367,-10.006 1.9446,-14.948 0.234,-1.274 0.8492,-2.459 1.4629,-3.6 0.5514,-1.025 1.0745,-2.163 2.01,-2.855 0.3129,-0.231 0.6019,0.524 0.9702,0.65 0.5658,0.193 1.2255,0.042 1.7708,0.288 0.2882,0.13 0.5228,0.449 0.5626,0.763 1.1077,8.724 0.8986,17.655 2.8642,26.227 0.3473,1.515 2.4385,1.942 3.7764,2.732 0.3063,0.181 0.7042,0.124 1.0598,0.124 1.3502,0 2.7401,0.209 4.0486,-0.124 0.9918,-0.252 1.8028,-0.982 2.6358,-1.577 0.408,-0.292 0.867,-0.604 1.062,-1.066 0.773,-1.831 1.427,-3.733 1.786,-5.688 0.904,-4.92 1.064,-9.958 1.99,-14.874 0.242,-1.28 0.866,-2.471 1.496,-3.612 0.404,-0.733 0.879,-2.421 1.575,-1.956 1.345,0.897 1.541,2.86 2.07,4.388 0.507,1.465 0.782,3.005 1.019,4.537 1.034,6.675 1.725,13.402 2.792,20.072 0.118,0.74 0.314,1.513 0.757,2.117 0.75,1.024 1.555,2.185 2.737,2.648"
     id="path66" />
</g>
<g
   id="g72"
   transform="translate(-185.80896,-442.56314)">
  <path
     fill="none"
     stroke="#000000"
     stroke-width="4"
     stroke-linecap="round"
     stroke-linejoin="round"
     d="m 29.8224,546.053 -0.3766,0.009 0.0095,-0.535 0.3404,0.85 0.0112,-0.506 0.0074,0.88 0.6263,1.324 0.6669,5.069 0.0065,2.659 0.675,1.669 0.2895,12.082 0.4364,2.26 0.2441,5.654 0.1046,8.988 2.2253,7.954 -0.2302,0.958 0.0361,-0.278 0.2201,0.502 0.1516,-0.252 0.3315,0.919 2.258,2.483 0.0808,0.641 0.3633,-0.381 0.225,0.188 0.116,-0.538 0.7614,1.445 0.509,0.146 0.4434,-0.414 0.3281,0.306 0.7149,-0.662 0.5958,0.227 1.0708,-0.592 0.5269,-0.678 0.3361,0.083 0.5619,-0.758 0.1679,-1.024 1.0783,-1.978 0.6584,-2.104 0.5779,-2.848 -0.0779,-3.475 0.6339,-6.786 -0.2544,-7.334 0.3301,-3.933 -0.1505,-3.106 0.7334,-3.012"
     id="path70" />
</g>
<g
   id="g76"
   transform="translate(-185.80896,-442.56314)">
  <path
     fill="none"
     stroke="#000000"
     stroke-width="4"
     stroke-linecap="round"
     stroke-linejoin="round"
     d="m 58.6478,513.707 -0.4657,-1.531 -0.5181,1.135 -0.072,-0.93 -0.2555,-0.129 -0.4649,0.343 -0.7461,-0.053 -0.2824,0.443 -0.4534,-0.658 -0.4664,0.447 -0.2489,-0.215 -0.4565,1.17 -0.1424,-0.144 -0.1484,0.424 -0.3225,-0.293 -2.2746,2.245 -0.9153,2.007 -0.4784,0.43 -1.572,5.544 -0.41,4.298 0.0995,2.11 0.423,3.461 1.1509,4.282 1.4964,2.033 0.4353,0.318 0.2015,-0.202 0.6026,0.718 0.9519,0.3 0.7037,-0.664 1.2626,0.698 2.4392,-1.877 1.4571,-2.158 0.1582,-0.733 0.3574,-0.333 0.1707,0.174 0.5365,-0.986 0.5307,-3.536 0.8512,-2.984 0.4456,-4.702 0.0663,-3.008 -0.9285,-4.831 -0.2946,-0.08 -0.477,-1.951 -0.5351,-0.722 -1.4544,-0.915 -0.4287,0.793 0.0096,-0.468 -0.2092,0.207 -0.4704,-0.269 -0.1983,-0.52 -2.5505,3.549 -0.8054,2.173 -0.3361,0.134 -0.6654,3.343 -1.1147,2.153 -0.0835,4.701 1.7275,4.914 1.057,0.471 1.0303,0.959 0.851,-0.203 0.2392,-0.807 0.2057,0.076 0.7329,-1.214 0.1878,0.244 1.4991,-6.325 0.0616,-1.475 -0.4136,-2.101 0.0706,-3.069 -0.4742,-2.434 -1.1929,-1.549 -0.5271,0.323 -0.3965,-0.279 -0.7093,0.501 -2.3801,4.34 -1.3993,3.628 -0.446,2.194 0.6733,7.871 0.4496,1.658 0.7237,0.813 0.1038,-0.412 0.609,-0.038 0.9701,-0.903 0.8613,-0.303 1.1881,-1.712 2.054,-6.886 0.1773,-2.73 -0.1817,-1.683 -0.5108,-1.28 -1.317,-1.245 -0.29,0.208 -0.3133,-0.42 -0.2879,0.279 -0.4853,-0.662 -0.7674,0.473 -3.1112,3.861 -1.5629,3.348 -0.3814,1.97 0.3643,4.06 1.5374,2.864 1.2854,0.41 1.1593,-0.613 1.3664,-2.387 1.5359,-5.618 -0.5555,-3.373 -0.8133,-1.632 -0.9342,-0.421 -1.0208,1.808 -0.887,2.4 -0.4938,2.722 0.3653,2.625 1.3266,2.613 0.706,-0.46 0.1898,-0.544 0.5778,0.191 0.7096,-0.859 1.1985,-4.621 0.0124,-1.543 -0.3896,-1.235 -1.2796,-1.869 -0.0243,0.704 -1.2809,0.973 -0.9108,2.597 -0.6878,3.439 0.4239,2.689 0.4917,0.324 0.2147,-0.266 0.9514,1.156 1.6301,-1.159 1.0153,-2.254 -0.3515,-1.586 -0.6021,1.243 -1.8681,1.7 -3.5816,6.544 -0.5715,1.778 0.1795,1.651 0.2923,-0.804 0.4912,0.552 1.9687,-1.636"
     id="path74" />
</g>
<g
   id="g80"
   transform="translate(-185.80896,-442.56314)">
  <path
     fill="none"
     stroke="#000000"
     stroke-width="4"
     stroke-linecap="round"
     stroke-linejoin="round"
     d="m 95.5326,514.36 0.2221,-0.39 0.2561,0.515 -0.0748,-1.45 -0.245,-0.73 -0.1055,0.421 -0.3158,-0.23 0.0908,-0.293 -0.1468,0.884 -0.8306,-0.795 -1.7784,0.401 -0.3124,0.411 -0.3287,-0.137 -0.7806,0.474 -2.711,4.804 -1.674,3.681 -0.5062,1.928 -0.579,6.169 0.3783,6.256 1.136,2.169 0.6586,0.345 1.6339,0.015 0.4319,0.509 1.2351,-0.588 -0.0557,-0.542 0.2212,0.283 0.2304,-0.408 0.4647,0.256 2.3615,-3.9 1.9689,-4.414 0.1607,0.181 1.4475,-8.064 0.0289,-3.289 -0.3075,-0.019 -0.54,-2.046 -1.3634,-2.909 -1.3126,-0.235 -0.4034,0.521 -1.444,0.506 -0.2658,-0.497 -1.2658,2.162 -0.0777,0.792 -3.3452,6.884 0.4566,7.373 0.7397,2.242 0.999,1.806 1.3761,1.045 0.7197,0.126 0.7831,-0.343 0.5866,-0.768 1.2421,-0.43 1.4463,-1.313 1.1848,-2.033 1.6208,-5.048 1.2649,-8.009 -0.6356,-3.176 -0.4447,-0.502 -0.2088,0.355 -0.4307,-1.049 -0.4767,-0.063 -0.23,-0.444 -3.2568,1.589 -3.7015,5.113 -1.4625,5.885 0.4516,5.95 0.3769,1.385 1.1254,1.927 0.5453,-0.119 0.3445,0.345 1.3095,-0.509 0.7968,0.167 2.1708,-0.57 1.2009,-1.292 1.0245,-2.003 0.7412,-3.299 0.6486,-6.1 0.1063,-1.701 -0.5344,-2.463 -0.7583,-2.164 -1.1182,-1.695 -0.3235,0.01 -0.7436,-1.157 -1.7403,0.918 -0.9536,1.021 -3.1303,5.757 -2.1675,5.73 -0.8049,3.951 0.3672,2.954 4.0381,6.404 1.0166,0.123 3.0111,-2.846 1.715,-2.712 0.9432,-2.149 0.9692,-3.75 0.2742,-2.324 -0.306,-3.554 -1.6173,-4.933 -0.6105,-0.903 -0.3789,0.182 -0.4468,0.726 -1.363,0.565 -2.9569,3.376 -1.8873,3.931 -1.2734,5.278 0.1856,2.025 2.2174,3.455 1.1924,0.685 1.6579,0.179 1.6804,-1.203 0.9284,-0.98 1.0185,-1.961 1.3004,-8.566 -0.4398,-2.111 -1.0763,-1.4 -1.6273,-1.084 -0.624,0.133 -0.4744,-0.322 -0.7143,0.561 -2.3954,3.358 -0.6474,2.093 -0.2363,2.189 0.0833,1.607 0.8584,2.651 1.0622,1.127 2.3445,0.537 0.689,-0.538 0.5487,-1.236 0.9895,-3.599 -0.4329,-2.351 -0.9241,0.064 -0.6266,-0.276 -0.2119,-0.527 -2.5344,0.583 -1.29,0.714 -0.2717,-0.135 -0.7501,1.212 0.2571,6.461 1.3003,2.067 0.2404,-0.418 0.5154,0.599 1.0005,0.34 0.0911,-0.299 0.5407,-0.115 1.4484,-3.7 -0.0526,-5.541 -0.7402,-1.518"
     id="path78" />
</g>
<g
   id="g84"
   transform="translate(-185.80896,-442.56314)">
  <path
     fill="none"
     stroke="#000000"
     stroke-width="4"
     stroke-linecap="round"
     stroke-linejoin="round"
     d="m 170.661,480.79 0.925,-0.392 0.109,0.464 -0.09,-0.597 0.214,0.186 -0.156,0.59 0.875,0.486 0.502,1.85 -0.072,0.881 0.813,3.823 0.039,3.353 0.734,5.284 0.079,5.26 0.465,3.186 -0.265,3.102 0.122,11.315 -0.514,5.483 -0.422,14.843 0.215,2.865 -0.391,14.38 0.228,4.728 -0.18,14.826 -0.406,7.963 -0.5,3.132 0.526,4.107 -0.187,1.902 0.521,2.979 0.05,4.463 1.208,4.745 0.313,2.556 0.294,0.765 0.097,-0.754 0.613,1.817 0.576,-0.094 1.273,1.708 0.545,0.079 0.485,0.704 0.793,0.393 0.116,0.646 0.809,-0.342 0.412,0.437 0.305,-0.246 0.851,1.201 1.955,-0.498 4.046,1.66 0.354,0.402 0.388,-0.217 0.696,0.178 0.289,-0.314 0.613,0.22 0.426,-0.703 0.786,0.774 0.802,0.089 0.111,0.267 2.373,-0.313 2.518,0.681 0.247,-0.288 2.36,0.033 0.247,-0.342 1.097,0.622 0.932,-0.41 1.284,0.05 0.448,-0.714 1.157,1.263 0.421,-0.232 0.116,0.251 0.899,-0.766 0.822,0.499 3.719,0.793 0.15,-0.266 0.443,0.257 0.222,-0.351 0.443,0.053 0.454,-0.53 2.973,0.544 5.659,-0.982 1.13,0.038 0.148,0.274 0.309,-0.347 1.193,-0.118 0.201,-0.366 0.295,0.346 0.907,0.073 0.357,0.482 0.171,-0.305 2.291,-0.151 0.385,-0.358 1.513,0.44 2.05,-0.286 1.313,0.55 0.576,-0.246 1.166,0.83 2.126,-0.401 3.435,1.195 3.562,-0.583 0.624,-0.403 2.269,-0.465 2.632,-1.088 0.493,-0.558 1.888,0.322 1.152,-0.598 0.924,0.336 1.185,-0.293 1.561,0.08 2.427,-0.653 0.652,0.177 1.396,-0.286 0.799,0.604 0.884,-0.652 0.239,0.171 0.451,-0.415 0.94,-0.03 0.39,-0.525 0.136,0.269 1.968,0.438 0.625,-0.195 0.47,0.448 1.013,-0.018 0.277,-0.286 0.542,0.618 0.698,0.035 1.446,-0.427 0.505,-0.692 1.118,0.288 0.395,-0.427 1.539,0.526 1.338,-0.396 3.071,-0.186 0.441,-0.528 2.413,0.504 0.984,-0.128 1.192,-0.766 2.287,0.648 1.952,0.006 1.526,-0.397 0.327,-0.35 1.028,0.629 0.92,-0.327 0.291,0.513 0.661,-0.872 0.46,0.215 0.221,-0.347 0.557,0.517 1.538,-0.249 0.32,0.27 1.259,-1.269 3.143,-0.939 1.198,-1.174 0.142,-0.596 -0.271,0.273 -0.098,0.609 0.2,-0.096 0.982,-2.369 0.136,-6.443 -0.783,-3.452 -0.256,-6.915 -1.144,-5.955 -0.292,-9.099 0.414,-2.862 0.325,-0.437 0.35,-8.932 1.218,-6.043 0.185,-4.39 1.257,-6.741 0.389,-6.896 -0.383,-1.967 -0.126,-5.672 -0.459,-4.259 -0.51,-1.832 0.214,-1.596 -0.529,-3.17 -0.373,-0.473 0.18,-2.061 -0.473,-2.481 -0.265,-6.486 -1.211,-6.471 -0.382,-6.456 -2.141,-10.072 -0.414,0.033 -0.492,-1.582 -0.374,-0.133 -0.05,-0.734 -0.238,-0.231 -0.073,0.249 -0.826,-2.074 -0.894,-1.071 -0.879,-0.331 -0.578,0.293 -1.43,-2.035 -1.193,0.327 -0.484,-0.56 -1.456,-0.703 -3.046,-0.095 -0.958,0.708 -0.314,-0.377 -0.381,0.59 -1.22,-1.028 -1.042,0.201 -0.671,-0.217 -3.058,0.283 -0.539,0.307 -1.911,-0.186 -3.372,1.512 -1.159,-0.076 -0.158,-0.526 -0.892,0.429 -0.362,-0.457 -0.108,0.352 -0.6,0.133 -0.378,0.724 -0.467,-0.299 -2.97,0.074 -0.745,-0.25 -2.045,0.597 -0.277,0.772 -0.733,-0.861 -1.402,-0.444 -1.388,0.006 -0.546,0.396 -1.014,-0.249 -3.353,0.142 -1.326,-0.773 -2.223,-0.064 -0.557,0.583 -0.791,-0.383 -0.887,0.171 -1.744,-0.405 -7.62,1.521 -5.102,-0.431 -1.8,0.356 -0.566,0.492 -1.679,-0.521 -1.473,0.197 -0.552,-0.433 -3.166,1 -3.172,-0.229 -0.927,0.25 -1.617,-0.349 -0.966,0.216 -0.539,-0.505 -1.982,1.489 -1.044,-0.178 -0.504,0.5 -1.171,-0.351 -0.464,-0.457 -0.892,0.205 -3.34,-0.243 -1.345,0.443 -1.34,-0.274 -0.51,0.425 -1.245,-0.988 -3.627,0.812 -2.45,-0.307 -0.624,-0.701 -0.334,0.279 -1.414,-0.018 -1.387,-0.763 -2.884,-0.643 -2.222,-0.951 -1.034,-0.064 -0.637,-0.515 -0.213,0.287 -0.825,0.017 -0.436,0.516 -0.757,-0.167 -0.403,0.482 -1.045,-1.158 -3.586,-0.587 -2.815,-1.052 -0.686,0.141 -1.186,-0.413 -0.386,0.223 -1.329,-0.481 -1.63,0.775 -0.466,0.876 -0.089,-0.312 -0.432,0.078"
     id="path82" />
</g>
<g
   id="g88"
   transform="translate(-185.80896,-442.56314)">
  <path
     fill="none"
     stroke="#000000"
     stroke-width="4"
     stroke-linecap="round"
     stroke-linejoin="round"
     d="m 196.9,563.198 -0.304,0.856 -0.044,-0.222 -0.193,0.186 -0.304,1.802 0.135,0.38 0.142,-0.703 0.069,0.797 0.164,-0.984 0.01,0.777 0.178,-0.616 -1.065,-8.267 0.095,-3.971 -0.263,-2.353 -0.112,0.276 -0.16,-0.383 v -1.69 l 0.004,0.546 0.26,-0.442 0.22,0.268 1.52,-1.836 0.467,-1.095 2.528,-1.79 4.747,-5.735 2.409,-1.977 0.788,-1.671 1.133,-1.445 1.35,-1.05 0.619,-1.258 0.332,-0.008 0.913,-1.998 1.32,-1.823 2.422,-1.683 0.813,-0.97 0.322,-0.941 1.782,-1.186 1.22,-1.875 1.065,-0.548 2.028,-1.903 1.072,-1.579 0.81,-0.308 1.381,-1.343 0.192,0.144 1.002,-1.188 0.321,0.232 0.605,-0.33 1.132,-1.871 1.422,-1.475 0.436,0.542 0.856,-1.713 1.24,-0.693 0.854,-1.314 0.104,0.307 0.301,-1.476 0.096,0.478 0.923,-1.633 0.597,-0.326 0.328,-1.121 0.418,0.336 0.175,-0.988 0.768,-0.774 0.089,0.238 0.43,-1.122 0.537,0.299"
     id="path86" />
</g>
<g
   id="g92"
   transform="translate(-185.80896,-442.56314)">
  <path
     fill="none"
     stroke="#000000"
     stroke-width="4"
     stroke-linecap="round"
     stroke-linejoin="round"
     d="m 194.865,568.912 -0.497,0.184 -0.107,-0.23 -0.148,0.473 0.189,-0.931 0.026,1.153 0.197,-0.312 1.251,1.681 0.24,-0.236 1.202,1.712 1.82,0.024 4.444,3.23 1.158,0.063 6.367,3.437 1.282,0.395 0.275,-0.283 0.692,0.526 0.654,1.174 0.671,-0.256 0.808,0.167 3.369,2.066 0.414,0.168 0.199,-0.333 0.346,0.456 0.212,-0.326 0.719,1.311 0.088,-0.228 0.239,0.236 0.741,-0.115 0.946,0.716 0.171,0.525 0.942,0.095 0.424,0.908 1.15,0.108 -0.09,0.569 0.738,-0.104 0.011,1.083 0.437,-0.374 0.269,0.575 0.487,0.164 0.188,-0.439 0.858,1.324 1.214,-0.453 0.277,0.568 0.555,-0.611 0.343,0.167 -0.006,-0.414 0.283,0.351 0.151,-0.352 0.214,0.579 0.46,-0.612 -0.037,0.521 0.173,-0.881 0.245,0.734 0.265,0.198 0.378,-0.26 -0.226,0.6 0.644,-3.129 -0.2,-3.479 -0.326,-0.801 -0.475,-9.266 0.17,-1.397 -0.098,0.296 -0.214,-0.685"
     id="path90" />
</g>
<g
   id="g96"
   transform="translate(-185.80896,-442.56314)">
  <path
     fill="none"
     stroke="#000000"
     stroke-width="4"
     stroke-linecap="round"
     stroke-linejoin="round"
     d="m 196.172,549.984 0.179,-0.376 -0.447,0.575 0.323,-0.248 0.263,0.627 -0.007,-0.5 0.97,1.737 1.122,1.117 2.621,1.92 1.237,2.014 0.165,-0.203 0.373,0.559 0.376,-0.086 0.775,0.523 1.846,1.919 4.954,2.323 0.477,0.735 0.776,0.08 0.254,-0.247 0.754,0.621 0.294,-0.299 0.866,1.278 1.559,0.304 2.752,1.265 0.24,-0.211 0.783,1.347 0.493,-0.082 0.273,0.329 0.908,-0.445 3.216,1.505 1.616,0.45 0.245,-0.308 1.053,1.411 0.987,-0.025 0.98,1.689 1.82,0.79"
     id="path94" />
</g>
<g
   id="g100"
   transform="translate(-185.80896,-442.56314)">
  <path
     fill="none"
     stroke="#000000"
     stroke-width="4"
     stroke-linecap="round"
     stroke-linejoin="round"
     d="m 231.568,567.264 -0.066,1.561 -0.761,1.965 0.112,0.507 -0.457,-0.288 0.336,-1.15 0.112,0.565 0.332,-0.868 0.568,0.569 0.18,-0.501 1.889,-1.579 1.987,-2.596 1.097,-0.768 0.314,-0.971 1.342,-1.684 3.05,-2.316 3.283,-3.799 0.247,-0.633 0.682,-0.454 1.411,-2.308 2.125,-1.845 3.236,-4.581 0.226,0.087 1.002,-2.094 1.996,-2.275 1.627,-2.934 1.815,-2.136 1.598,-3.461 0.471,-0.546 0.256,0.1 1.867,-4.171 2.273,-2.563 -0.172,-0.718 0.321,-0.359 0.146,0.195 0.229,-0.848 0.578,-0.737 0.062,0.414 -0.368,-1.067"
     id="path98" />
</g>
<g
   id="g104"
   transform="translate(-185.80896,-442.56314)">
  <path
     fill="none"
     stroke="#000000"
     stroke-width="4"
     stroke-linecap="round"
     stroke-linejoin="round"
     d="m 241.839,503.289 -0.662,-0.111 -0.748,-1.016 0.123,-0.364 -0.007,0.584 0.082,-0.441 0.555,0.939 1.005,0.489 0.198,-0.17 1.816,2.308 1.743,1.124 4.263,3.693 1.702,2.085 0.455,-0.04 0.538,0.439 0.458,-0.114 0.868,0.584 0.401,-0.212 1.148,1.236 0.29,-0.142 1.198,0.492 6.752,4.126 1.362,0.302 0.848,0.817 0.471,-0.082 1.016,1.043 0.172,0.849 2.319,2.676 0.716,0.386 0.332,0.919 -0.091,1.607"
     id="path102" />
</g>
<g
   id="g108"
   transform="translate(-185.80896,-442.56314)">
  <path
     fill="none"
     stroke="#000000"
     stroke-width="4"
     stroke-linecap="round"
     stroke-linejoin="round"
     d="m 272.744,524.323 -0.297,0.104 -0.106,0.633 0.098,-0.301 0.516,1.486 0.298,9.29 -0.683,2.141 0.064,4.44 -0.214,0.201 0.496,3.194 0.687,0.592"
     id="path106" />
</g>
<g
   id="g112"
   transform="translate(-185.80896,-442.56314)">
  <path
     fill="none"
     stroke="#000000"
     stroke-width="4"
     stroke-linecap="round"
     stroke-linejoin="round"
     d="m 237.13,585.965 -0.795,-0.21 -0.474,0.323 0.195,0.657 0.535,-1.01 0.159,0.487 0.408,-0.173 6.479,-7.969 0.944,-0.731 0.314,-0.883 4.943,-4.381 1.375,-0.811 2.128,-3.382 0.204,0.153 0.341,-1.664 0.208,0.099 0.859,-0.866 3.496,-4.141 1.729,-0.974 1.027,-2.804 0.804,-0.425 2.522,-3.162 1.186,-0.9 0.232,-0.383 -0.406,-0.67 1.409,-1.946 0.488,-0.349 0.262,0.166 0.901,-2.155 0.817,-1.066 0.148,0.32 1.383,-3.097"
     id="path110" />
</g>
<g
   id="g116"
   transform="translate(-185.80896,-442.56314)">
  <path
     fill="none"
     stroke="#000000"
     stroke-width="4"
     stroke-linecap="round"
     stroke-linejoin="round"
     d="m 203.3,538.735 -0.051,-0.303 -0.355,0.268 0.507,-0.202 0.102,0.277 0.693,-0.454 0.04,-0.364 0.83,0.11 0.933,-0.894 2.075,-0.664 0.541,0.665 0.967,-0.362 2.02,1.044 1.987,0.121 2.387,1.969 0.287,0.785 0.683,-0.031 1.281,0.846 3.763,4.486 0.52,0.322 0.216,-0.175 0.326,0.491 0.257,-0.138 0.71,1.508 1.411,0.196 1.931,2.725 1.405,0.138 1.322,1.44 4.955,3.119 0.698,0.855 0.073,1.666"
     id="path114" />
</g>
<g
   id="g120"
   transform="translate(-185.80896,-442.56314)">
  <path
     fill="none"
     stroke="#000000"
     stroke-width="4"
     stroke-linecap="round"
     stroke-linejoin="round"
     d="m 240.531,562.562 0.333,-0.918 -0.557,-1.174 0.2,0.058 -0.047,-0.51 0.033,0.92 0.389,-0.443 -0.441,-1.205 0.238,-0.926 0.118,1.305 0.113,-0.947 -0.24,1.038 0.988,3.155 0.436,4.079 -0.062,5.313 0.489,3.432 -0.536,5.057"
     id="path118" />
</g>
<g
   id="g124"
   transform="translate(-185.80896,-442.56314)">
  <path
     fill="none"
     stroke="#000000"
     stroke-width="4"
     stroke-linecap="round"
     stroke-linejoin="round"
     d="m 324.262,480.963 0.004,-0.784 0.154,0.639 0.347,-0.241 -0.083,-0.447 -0.267,0.234 -0.093,0.673 0.416,1.19 -0.159,0.612 0.151,-0.201 0.162,0.613 0.432,4.31 0.749,14.404 -0.639,8.347 0.168,0.623 -0.271,0.799 0.175,4.589 -0.319,3.565 0.445,5.902 -0.378,4.413 1.066,11.524 -0.064,10.875 0.408,3.245 -0.36,3.086 0.228,2.736 -0.198,-0.052 -0.138,1.588 -0.215,9.258 0.264,1.918 -0.101,9.987 0.244,1.201 -0.315,3.971 0.23,2.75 0.075,-0.249 0.141,0.313 -0.247,1.662 0.378,4.386 -0.215,2.881 0.375,0.918 -0.204,1.007 0.538,3.464 0.065,3.617 0.543,2.106 0.141,-0.59 0.182,1.417 0.289,0.552 0.265,-0.501 0.836,0.797 0.305,-0.562 0.898,1.051 2.25,0.311 0.097,-0.312 0.868,1.383 0.717,-1.028 2.483,0.396 2.217,-0.369 0.226,0.667 1.277,-1.615 0.132,0.456 1.009,0.306 0.992,-0.11 0.229,0.346 0.787,-0.465 0.81,0.056 0.293,-0.428 0.873,0.328 0.813,-0.177 2.26,-1.135 1.422,0.383 2.64,-1.277 0.561,0.135 0.228,0.506 1.169,-0.774 0.686,0.557 1.866,-0.314 0.266,0.493 1.237,-1.007 0.487,0.789 1.356,-0.647 0.446,0.21 2.796,-0.139 1.111,-0.333 0.234,-0.506 0.103,0.431 0.935,0.354 0.261,0.44 1.101,-0.237 0.193,-0.479 0.405,0.436 0.626,-0.009 0.898,-0.334 0.947,0.106 0.225,-0.36 0.329,0.516 0.413,-0.304 0.032,0.321 0.51,-1.001 -10e-4,0.413 1.224,0.174 0.161,0.333 0.549,-0.211 0.23,0.393 0.751,-0.774 0.979,0.656 1.002,-0.517 1.295,0.012 1.638,0.542 0.861,-0.536 0.569,0.158 0.268,-0.235 1.694,0.469 1.032,-0.738 1.95,0.609 0.795,-0.19 0.711,-0.821 0.941,-0.086 0.417,0.726 0.758,-0.968 0.39,0.047 0.28,-0.61 1.045,0.432 2.658,-0.517 0.336,0.367 1.199,-0.558 0.475,-0.6 0.665,0.213 0.455,-0.638 1.28,0.743 0.995,-0.331 0.374,-0.542 0.927,0.261 0.388,-0.317 1.805,0.068 1.505,-0.401 0.873,0.417 1.083,-0.396 0.228,-0.508 1.508,0.992 1.75,-0.462 2.049,0.076 1.428,0.379 0.296,0.53 0.331,-0.312 0.349,0.179 0.187,-0.347 0.328,0.361 0.347,-0.348 0.993,0.866 1.035,0.145 0.842,-0.373 2.162,0.798 0.717,0.823 0.94,-0.074 0.47,0.318 0.292,-0.474 0.398,0.614 0.158,-0.187 1.14,0.789 0.59,-0.363 1.296,0.208 0.22,-0.476 0.128,0.335 1.076,0.481 1.656,-0.003 0.522,-0.365 1.347,0.572 1.046,-0.048 0.885,-0.444 2.174,0.376 0.183,0.415 0.84,-0.266 0.268,0.455 1.362,-1.037 2.183,0.521 1.31,-0.252 2.359,0.336 0.297,-0.323 1.394,1.211 1.031,-1.032 0.53,0.287 0.355,-0.263 4.285,0.198 2.099,-0.667 0.79,0.072 0.343,0.396 0.167,-0.37 0.816,-0.217 0.208,-0.54 0.371,0.919 0.357,-0.507 0.399,0.257 0.546,-0.158 -0.049,0.238 0.231,-0.41 0.378,0.742 0.703,-0.905 0.378,0.233 0.154,-0.518 0.502,0.302 0.081,0.571 0.512,-0.551 1.571,-0.23 0.332,0.195 1.468,-1.324 0.642,0.73 0.354,-0.956 0.549,0.139 0.644,-1.901 0.261,0.277 0.211,-0.69 0.162,-3.064 -0.335,-3.728 0.232,-4.509 0.189,0.377 0.045,-0.514 -0.362,-3.738 0.686,-8.091 0.773,-4.359 -0.129,-1.952 -0.774,-1.654 -0.323,-8.807 0.199,-0.286 -0.423,-5.081 0.29,-7.294 -0.277,-1.212 0.26,-2.677 -0.23,-1.042 0.313,-4.147 -0.341,-4.112 0.377,-3.556 -0.272,-7.797 0.472,-8.054 -0.518,-5.013 0.564,-5.663 -0.139,-2.279 -0.114,0.196 -0.15,-0.498 0.273,-6.009 -0.527,-2.054 0.532,-6.2 -0.961,-3.805 0.174,-2.586 -0.321,-2.987 -0.705,-1.872 -0.581,-3.868 -0.372,0.573 -0.082,-0.939 -0.448,0.335"
     id="path122" />
</g>
<g
   id="g128"
   transform="translate(-185.80896,-442.56314)">
  <path
     fill="none"
     stroke="#000000"
     stroke-width="4"
     stroke-linecap="round"
     stroke-linejoin="round"
     d="m 464.109,480.701 0.599,0.058 -0.025,-0.271 0.232,0.804 0.595,-1.027 -0.078,0.487 -0.629,-0.105 -0.008,0.367 -0.413,-0.757 0.198,0.294 -0.15,-0.284 -0.951,0.607 -1.475,-0.808 -3.23,0.179 -1.16,0.475 -2.058,-0.011 -0.52,-0.565 -1.281,0.848 -1.016,-0.2 -0.522,-0.537 -2.225,0.307 -0.288,0.344 -1.812,-0.558 -0.305,-0.461 -2.226,0.37 -3.784,-0.633 -3.037,0.155 -3.351,-0.542 -2.53,0.547 -3.844,-0.376 -1.79,0.319 -0.436,0.347 -2.165,-0.141 -0.45,-0.329 -1.23,0.451 -0.741,-0.077 -0.469,0.367 -4.158,-0.535 -1.07,0.469 -0.884,-0.122 -0.406,0.447 -1.616,-0.646 -0.864,0.14 -0.479,-0.251 -1.866,0.407 -3.223,-0.071 -1.063,0.478 -1.86,-0.036 -1.363,0.548 -2.929,-0.14 -0.863,-0.43 -4.051,0.952 -2.601,-0.186 -3.058,0.228 -0.412,-0.3 -3.167,0.883 -2.17,-0.693 -3.919,0.31 -3.387,-0.095 -0.911,-0.393 -1.845,0.182 -0.442,0.422 -1.252,-0.593 -1.195,0.053 -0.501,-0.524 -0.604,0.397 -2.546,0.137 -2.283,-0.211 -2.862,-0.855 -2.548,0.175 -1.126,-0.547 -2.088,0.034 -0.406,0.313 -1.284,-0.442 -1.92,0.071 -1.336,-0.455 -1.888,-0.042 -1.343,0.177 -1.124,0.532 -4.404,-0.718 -2.153,0.362 -3.348,-0.121 -0.828,0.41 -1.306,-0.304 -1.449,0.117 -0.7,0.387 -0.397,1.191"
     id="path126" />
</g>
<g
   id="g132"
   transform="translate(-185.80896,-442.56314)">
  <path
     fill="none"
     stroke="#000000"
     stroke-width="4"
     stroke-linecap="round"
     stroke-linejoin="round"
     d="m 388.864,503.736 0.018,0.385 -0.308,0.015 0.351,0.209 -0.066,-0.811 -0.005,1.061 -0.011,-0.356 0.409,-0.085 -0.4,0.463 0.063,0.216 0.233,-0.255 0.034,-0.363 0.058,1.026 -0.426,2.318 0.28,1.479 -0.034,8.29 -0.381,1.47 -0.174,4.086 0.328,1.342 -1.027,8.037 0.317,0.696 -0.075,4.124 0.445,2.314 0.167,8.391 0.278,1.266 -0.152,2.801 0.741,5.829 0.106,29.566 0.156,1.393 0.222,-0.094 0.058,-0.642 0.5,-0.315 0.462,-1.159"
     id="path130" />
</g>
<g
   id="g136"
   transform="translate(-185.80896,-442.56314)">
  <path
     fill="none"
     stroke="#000000"
     stroke-width="4"
     stroke-linecap="round"
     stroke-linejoin="round"
     d="m 351.844,577.554 -0.528,0.811 0.365,-0.353 0.203,0.532 1.47,-2.35 1.52,-1.045 0.864,-1.155 0.761,-0.428 0.408,0.26 2.092,-2.05 0.576,-0.989 0.472,0.346 1.492,-0.722 3.933,-3.587 1.77,-2.455 2.456,-2.318 0.976,-1.464 0.769,-0.259 0.487,-0.796 1.394,-0.443 4.83,-5.859 0.675,-1.661 4.061,-3.257 1.25,-1.846 2.226,-2.098 1.389,-1.854 5.729,-5.82 1.813,-1.673 0.398,0.081 1.683,-2.696 0.576,-0.196 1.155,-1.424 0.428,-0.036 2.572,-3.296 3.555,-3.374 1.531,-1.778 2.355,-3.777 0.352,-0.07 0.589,-0.918 0.28,0.075 0.252,-1.011 0.525,-0.271 0.913,-1.415 0.158,0.372 0.575,-0.93 0.357,-0.084 2.722,-5.399 0.353,-0.573 0.149,0.66 -0.172,-0.611 0.309,-0.515 0.045,0.243 -0.07,-0.592 0.335,0.812"
     id="path134" />
</g>
<g
   id="g140"
   transform="translate(-185.80896,-442.56314)">
  <path
     fill="none"
     stroke="#000000"
     stroke-width="4"
     stroke-linecap="round"
     stroke-linejoin="round"
     d="m 351.689,518.646 -0.264,-0.787 0.429,1.457 0.095,-0.76 -0.009,0.306 0.244,-0.176 0.873,1.367 4.649,3.674 0.394,-0.03 1.979,2.283 0.408,0.924 0.828,0.128 0.976,0.929 0.417,-0.161 1.229,2.024 3.305,3.546 0.918,0.513 2.37,2.769 2.039,1.005 0.454,-0.223 2.702,2.174 2.146,1.17 1.63,1.675 0.997,0.253 0.984,0.94 0.578,0.134 5.243,4.442 3.17,1.74 0.914,0.905 1.595,0.343 0.648,0.678 0.416,-0.238 1.36,1.923 5.936,1.576 2.012,0.747 0.469,0.619 0.18,-0.277 1.101,-0.083 0.569,0.309 0.367,-0.417 0.823,1.117 1.059,0.752 0.907,-0.144 0.75,0.521 0.239,-0.136 1.763,1.049 0.822,0.914 0.246,-0.199 1.363,0.898 0.279,-0.538 0.168,0.48 0.647,0.116 1.266,1.221 2.066,0.431 2.45,1.566 0.542,0.883 1.82,1.145 1.058,-0.148 0.857,-1.331"
     id="path138" />
</g>
<g
   id="g144"
   transform="translate(-185.80896,-442.56314)">
  <path
     fill="none"
     stroke="#000000"
     stroke-width="4"
     stroke-linecap="round"
     stroke-linejoin="round"
     d="m 376.559,508.557 0.353,-0.419 0.197,0.636 -0.285,0.077 0.635,0.238 0.451,2.058 1.312,1.306 0.24,-0.141 1.186,3.393 0.746,0.644 0.608,1.191 0.737,0.178 0.658,1.358 0.509,0.296 0.371,-0.627 0.43,0.394 h 0.783 l 1.871,-0.683 1.774,-2.018 0.512,-1.117 0.464,-0.069 1.983,-1.906 1.038,-1.741 2.176,-1.417 0.447,-0.731 1.574,-1.235 1.706,-2.461 0.864,-0.388"
     id="path142" />
</g>
<g
   id="g148"
   transform="translate(-185.80896,-442.56314)">
  <path
     fill="none"
     stroke="#000000"
     stroke-width="4"
     stroke-linecap="round"
     stroke-linejoin="round"
     d="m 401.71,522.485 -0.578,0.058 -0.202,0.354 -0.838,-0.663 0.01,0.698 -0.586,-0.885 -0.274,0.616 -0.333,-0.248 -0.711,0.135 0.178,0.341 0.098,-0.793 -0.123,0.508 0.337,-0.07 -0.25,-0.204 0.204,0.639 0.023,-1.03 0.081,1.047 -0.291,-0.413 0.463,-0.146 -0.344,0.033 0.011,0.603 -0.069,-0.266 0.247,0.068 0.065,-1.036 -0.057,0.677 -0.294,-0.01 0.247,-0.164 -0.005,0.427 0.192,-0.928 0.147,0.25 -0.259,0.359 0.644,-2.898 1.737,-4.49 -0.301,-0.776 1.168,-2.906 -0.089,0.64 -0.164,-0.678 0.047,1.3 -1.104,6.431 0.118,2.003 -0.286,1.831 0.371,2.145 -0.032,-0.814 0.164,0.623 1.122,-0.075 1.59,0.576 0.534,-0.196 1.141,0.67 0.716,-0.094 0.343,0.562 1.64,-1.093 0.796,0.226 0.533,-0.428 1.647,0.533 1.758,-0.5 2.123,-0.006 0.429,0.349 0.8,-0.028 0.265,-0.33 1.337,0.613 0.19,0.507 0.918,-0.72"
     id="path146" />
</g>
<g
   id="g152"
   transform="translate(-185.80896,-442.56314)">
  <path
     fill="none"
     stroke="#000000"
     stroke-width="4"
     stroke-linecap="round"
     stroke-linejoin="round"
     d="m 422.127,555.236 0.21,-0.516 0.163,0.31 0.168,-0.67 -0.08,0.765 -0.276,-0.274 -0.186,0.258 0.112,-0.311 -0.245,0.533 -0.447,-0.189 -0.34,0.275 -1.197,-0.671 -2.358,0.316 -0.638,0.571 -5.338,-1.308 -0.544,0.348 -0.3,-0.152 -0.231,0.465 -1.695,-0.737 -0.966,0.845 1.141,2.097 1.503,6.065 2.759,3.483 0.306,1.494 0.071,-0.409 0.524,0.378 0.135,-0.281 0.531,1.17 0.313,2.985 0.302,0.275 0.101,-0.362"
     id="path150" />
</g>
<g
   id="g156"
   transform="translate(-185.80896,-442.56314)">
  <path
     fill="none"
     stroke="#000000"
     stroke-width="4"
     stroke-linecap="round"
     stroke-linejoin="round"
     d="m 376.665,584.878 -0.474,-2.091 -0.18,0.442 0.191,0.971 0.61,-0.708 -0.16,-0.961 0.742,-2.707 2.269,-2.26 3.079,-3.865 1.504,-1.152 2.032,-0.525 0.205,-0.706 1.683,-0.16 0.413,0.248 0.901,-0.276 0.681,-0.894 0.537,0.225 -0.09,0.352 0.663,-0.41 1.348,2.034 0.664,0.159 1.472,1.324 1.706,2.681 1.388,3.597 0.513,0.719 0.327,-0.141 0.419,0.941 0.321,-0.051 0.734,1.809 0.524,-0.299 0.327,0.369 0.182,-0.253 0.3,0.181"
     id="path154" />
</g>
<g
   id="g160"
   transform="translate(-185.80896,-442.56314)">
  <path
     fill="none"
     stroke="#000000"
     stroke-width="4"
     stroke-linecap="round"
     stroke-linejoin="round"
     d="m 347.207,563.921 -0.57,1.5 -0.133,-1.519 -0.215,0.486 0.501,0.297 -0.025,0.309 0.234,-0.503 0.326,-0.236 0.229,0.368 0.083,-0.284 0.122,0.54 1.046,0.465 0.272,0.635 0.104,-0.235 0.646,0.251 0.679,-0.151 0.234,-0.279 0.966,0.52 0.738,-0.149 1.115,0.398 1.618,0.175 0.265,-0.364 0.414,0.461 0.319,-0.554 0.706,0.556 0.339,0.832 0.101,-0.352 0.433,-0.01 0.576,-0.565 0.159,-0.501 0.53,0.267 0.878,-0.432 0.047,0.41 0.264,-1.1 0.353,0.66 0.512,-0.446 0.275,0.121 0.236,-0.537 0.868,0.741 -0.016,0.525 0.378,-0.372 0.591,2.004 -0.558,5.436 -1.28,5.993 -1.807,4.788 0.157,0.357 0.411,-1.132"
     id="path158" />
</g>
<g
   id="g164"
   transform="translate(-185.80896,-442.56314)">
  <path
     fill="none"
     stroke="#000000"
     stroke-width="4"
     stroke-linecap="round"
     stroke-linejoin="round"
     d="m 347.814,527.744 -0.136,0.671 -0.114,-0.431 0.252,0.635 0.206,-0.688 0.28,0.521 1.273,0.48 0.767,1.012 0.906,0.478 1.995,0.025 2.678,1.427 0.273,0.474 0.774,0.115 0.287,0.442 0.797,-0.618 0.216,0.294 0.555,-0.28 1.152,0.967 1.066,0.386 0.775,-0.233 1.691,1.477 0.326,-0.225 0.056,-0.774 0.093,1.038 -0.14,-0.257 0.398,-0.425 0.863,-0.475 1.062,-1.915 0.511,-1.838 0.621,-5.039 -0.248,-4.252 -1.065,-4.091 -0.647,-4.756 -0.613,-2.097 -0.176,-0.233 -0.098,0.451"
     id="path162" />
</g>
<g
   id="g168"
   transform="translate(-185.80896,-442.56314)">
  <path
     fill="none"
     stroke="#000000"
     stroke-width="4"
     stroke-linecap="round"
     stroke-linejoin="round"
     d="m -457.37,480.522 0.227,-0.171 -0.293,0.363 -0.065,-1.001 0.075,0.264 -0.412,0.14 0.574,-0.02 -0.304,0.113 0.174,0.36 -0.254,0.195 0.467,-0.338 -0.333,0.824 0.138,2.283 -0.375,0.425 0.36,4.232 -0.406,0.876 0.559,1.547 -0.352,2.17 0.198,-0.175 0.02,2.341 0.324,0.336 -0.278,1.586 0.33,1.234 -0.151,0.661 0.321,0.052 -0.415,4.056 0.104,1.943 0.289,0.196 -0.519,2.324 0.282,3.276 -0.383,1.611 0.216,1.652 -0.215,1.5 0.296,1.748 -0.611,0.741 0.649,2.21 -0.138,2.462 -0.252,0.1 0.276,1.28 -0.094,1.81 -0.356,0.829 0.594,2.964 -0.438,1.598 0.322,1.199 -0.482,4.513 -0.042,4.008 -0.372,0.662 0.293,0.077 0.549,2.604 -0.385,2.189 -0.319,0.159 0.035,5.129 0.297,0.434 -0.142,1.783 -0.325,0.358 0.458,3.081 -0.529,4.636 0.107,1.251 0.315,0.233 -0.494,1.295 0.039,0.838 -0.335,0.227 0.27,1.091 0.257,-0.055 -0.141,1.473 0.343,0.637 -0.43,0.835 -0.147,-0.408 0.092,2.322 0.436,1.036 -0.25,0.322 -0.015,2.149 -0.214,-0.156 0.407,3.459 -0.4,0.78 0.534,2.798 -0.372,1.251 0.753,2.656 -0.555,1.172 0.092,1.038 0.341,0.362 -0.175,1.663 0.331,0.701 -0.549,1.897 0.271,2.153 -0.222,0.187 0.65,2.545 0.419,0.446 -0.325,0.537 0.176,1.219 -0.083,-0.246 -0.246,0.539 -0.359,0.008 -0.052,0.904 0.028,-0.289 -0.195,0.113 -0.034,0.636 0.622,1.412 -0.43,1.834 0.564,2.516 -0.581,2.089 0.183,0.364 0.115,-0.246 0.059,0.505 0.404,-0.097 -0.255,0.234 -0.331,-0.222 0.25,1.457 -0.503,10e-4 0.324,0.278 0.101,-0.29 0.298,1.303 -0.169,0.576 -0.347,-0.781 0.801,-0.417 0.227,-0.681"
     id="path166" />
</g>
<g
   id="g172"
   transform="translate(-185.80896,-442.56314)">
  <path
     fill="none"
     stroke="#000000"
     stroke-width="4"
     stroke-linecap="round"
     stroke-linejoin="round"
     d="m -457.519,482.161 -1.57,-0.459 -0.072,-0.765 -0.461,0.821 0.436,-0.086 0.13,0.313 0.815,-0.736 -0.081,0.324 -0.574,0.185 0.272,-0.261 0.138,0.369 0.031,-0.545 -0.285,0.626 0.583,-0.133 0.657,-0.686 1.862,0.2 0.346,-0.432 0.561,0.46 0.099,0.57 1.312,-0.815 0.013,0.278 1.381,-0.069 0.067,0.341 1.179,-0.56 0.537,0.166 -0.039,0.289 1.833,-0.45 0.829,0.318 1.269,-0.125 0.461,0.34 2.904,-0.612 0.361,-0.328 3.507,0.558 3.623,-0.195 0.513,-0.269 0.824,0.192 0.432,-0.324 1.406,0.412 1.462,-0.11 2.032,-0.81 5.653,0.432 1.331,0.481 0.684,-0.207 2.296,0.44 0.224,0.437 1.155,-0.384 0.592,0.113 0.937,-0.552 3.926,1.243 2.354,-0.122 0.509,-0.353 2.547,0.459 3.171,-0.713 1.343,0.448 3.512,0.023 2.919,-0.285 0.561,-0.439 2.458,1.003 1.475,-0.468 2.09,-0.044 0.455,0.248 1.276,-0.363 1.702,0.144 0.483,0.37 1.151,-0.694 0.567,0.245 0.459,-0.254 1.166,0.644 1.568,-0.22 1.182,-0.729 1.965,-0.317 1.492,-0.131 0.671,0.373 0.968,-0.063 1.702,-0.441 0.726,0.157 0.465,-0.319 1.329,0.398 2.348,-1.191 1.807,0.571 0.104,-0.208 0.522,0.619 0.908,-0.115 0.415,0.273 1.096,-0.528 0.897,0.603 5.681,-0.133 1.313,1.082 0.828,-0.674 1.366,-0.229 0.973,0.69 3.495,-0.1 1.984,0.413 0.449,0.359 1.2,-0.557 0.725,0.126 0.265,-0.593 1.041,0.75 3.716,0.035 0.527,-0.336 0.773,0.282 0.188,0.409 1.856,-0.604 2.073,0.95 2.634,-0.029 0.138,-0.277 0.805,0.295 0.181,0.372 0.263,-0.104 0.121,0.339 0.323,-0.675 0.89,0.637 1.248,0.107 0.127,-0.632 0.233,0.885 -0.234,0.03 0.234,-0.206 -0.233,-0.13 0.435,-0.127 1.263,0.683 0.609,-0.416 0.348,0.937 0.043,-1.076 1.045,1.277 0.112,-0.798 0.06,0.798 0.236,-0.034 -0.364,0.232 0.689,0.439 0.021,-0.242 0.183,0.568 -0.281,0.927 0.367,1.527 -0.529,1.97 0.188,1.63 0.248,0.141 -0.968,4.77 -0.262,5.077 0.321,1.387 -0.042,2.233 0.293,0.643 -0.256,0.637 0.172,2.149 0.265,0.28 -0.233,2.445 0.424,0.853 0.104,1.784 -0.266,3.096 0.265,0.633 -0.249,0.347 0.583,1.529 0.246,6.281 -0.261,1.504 1.279,3.431 -0.243,3.262 0.15,0.98 0.305,0.096 0.032,1.455 -0.443,1.917 1.041,5.018 -0.297,2.541 -0.329,0.621 0.55,2.938 -0.209,3.713 0.252,1.838 -1.043,6.7 0.097,2.46 0.313,0.202 -0.935,8.686 0.461,0.49 -0.329,0.44 0.116,1.4 -0.298,1.011 0.236,-0.015 0.169,1.092 -0.741,3.003 -0.117,2.743 0.336,1.049 -0.226,2.116 -0.383,0.534 0.102,2.84 -0.452,2.891 0.246,1.128 -0.324,3.122 0.079,1.479 0.197,-0.064 -0.385,1.498 0.21,3.065 0.241,0.104 -0.35,1.34 0.078,1.582 0.334,0.58 -0.574,1.504 0.344,0.819 0.152,-0.177 0.084,0.713 -0.138,-0.489 -0.193,1.418 0.273,0.2 -0.167,0.569 0.417,-0.349 -0.192,1.848 0.246,-0.03 -0.003,0.675 0.321,-0.555 -0.129,0.385 -0.157,-0.14 -0.225,1.426 0.407,1.097 0.212,-0.194 -0.238,0.534 -0.317,-0.029 0.323,-1.21"
     id="path170" />
</g>
<g
   id="g176"
   transform="translate(-185.80896,-442.56314)">
  <path
     fill="none"
     stroke="#000000"
     stroke-width="4"
     stroke-linecap="round"
     stroke-linejoin="round"
     d="m -455.58,612.579 0.002,-0.563 -0.346,0.81 -0.243,-0.522 0.844,0.72 -0.172,-0.708 0.895,1.03 2.592,0.105 1.858,1.329 0.523,0.004 0.142,0.223 -0.221,0.038 2.719,0.413 0.582,0.713 1.174,-0.814 0.56,0.651 2.004,0.467 0.257,0.652 0.56,-0.2 -0.09,-0.268 0.684,0.154 0.528,-0.446 0.761,0.381 1.47,-0.473 1.736,0.11 0.212,-0.214 1.874,0.511 2.358,-1.385 1.351,-0.202 1.471,0.247 1.22,-0.279 2.165,0.366 0.583,-0.274 1.274,0.889 1.585,-0.762 0.305,-0.604 5.129,0.783 1.058,-0.277 0.23,-0.341 1.594,-0.111 0.985,0.479 0.84,-0.011 1.067,-0.811 0.461,0.222 0.876,-0.192 6.988,0.359 0.775,-0.541 1.891,0.537 0.769,-0.086 0.409,0.735 1.176,-1.042 0.67,0.036 0.517,-0.337 0.559,0.517 2.281,0.574 0.244,0.466 2.223,-0.745 1.362,0.263 0.081,0.279 1.222,-0.333 0.638,0.112 0.758,0.673 3.793,0.23 0.298,0.391 1.335,-0.554 0.747,0.239 0.468,-0.654 1.461,1.317 0.89,-0.003 0.518,0.454 1.47,-0.194 3.283,0.905 0.51,-0.185 1.081,0.714 2.092,-0.254 0.612,-0.356 1.536,0.227 0.163,0.319 0.944,-0.051 1.003,-0.709 1.34,-0.247 2.43,0.263 1.106,-0.329 0.528,0.259 1.583,-1.092 1.081,-0.02 0.344,-0.329 1.79,0.193 3.009,-0.366 0.817,0.358 0.935,-0.291 1.369,0.56 0.063,0.351 1.576,-0.712 0.798,0.102 0.654,-0.553 0.343,0.281 0.183,-0.425 0.64,0.726 1.206,-0.282 1.712,0.42 0.382,-0.33 1.823,0.533 0.328,0.599 1.211,-0.546 0.228,-0.474 0.372,0.646 2.697,-0.176 0.395,0.313 2.284,-0.661 0.567,-0.526 0.681,0.536 1.641,-0.743 0.27,0.206 0.081,-0.51 0.243,0.607 0.548,0.137 1.305,-0.623 -0.014,-0.938"
     id="path174" />
</g>
<g
   id="g180"
   transform="translate(-185.80896,-442.56314)">
  <path
     fill="none"
     stroke="#000000"
     stroke-width="4"
     stroke-linecap="round"
     stroke-linejoin="round"
     d="m -437.021,502.757 -0.027,1.267 -0.207,0.003 0.353,0.55 -0.323,0.415 0.434,-0.447 -0.318,0.243 0.149,0.358 0.301,-0.061 -0.278,0.325 0.194,0.073 0.034,-0.45 -0.381,0.493 0.247,0.837 -0.247,0.456 0.651,0.541 -0.647,1.921 0.471,1.651 -0.119,1.751 0.485,0.454 -0.254,0.089 -0.398,1.743 0.249,1.762 0.322,0.256 -0.693,1.543 0.374,1.341 -0.033,2.264 0.206,-0.072 -0.321,1.731 0.274,0.98 -0.029,2.555 0.251,0.163 -0.305,0.756 0.088,1.671 -0.51,1.232 0.229,0.029 0.157,2.205 0.478,0.354 -0.559,1.457 -0.2,1.755 0.752,3.186 -0.308,0.311 0.246,0.665 -0.518,2.953 0.624,2.408 -0.381,1.104 0.526,1.704 0.139,2.803 0.235,-0.266 -0.72,3.562 0.155,1.567 -0.512,3.005 0.216,1.463 0.338,0.012 0.049,0.359 -0.339,0.782 0.094,0.77 -0.294,0.245 0.217,0.277 -0.197,1.334 0.446,1.908 0.569,0.344 -0.249,0.023 -0.15,1.123 -0.31,0.098 0.528,0.845 -0.167,2.873 0.188,-0.26 0.108,0.844 -0.317,0.788 0.059,2.938 -0.335,1.059 0.109,-0.383 0.246,0.529 -0.436,1.123 0.377,0.391 -0.297,2.331 0.204,0.316 -0.408,2.949 -0.457,0.291 0.416,1.118 -0.159,0.308 0.497,0.346 -0.671,1.086 0.415,2.686 -0.188,0.368 0.306,0.727 -0.54,1.008 0.29,0.624 0.267,-0.118 -0.247,1.735 -0.35,0.15 0.236,0.247 0.165,-0.225 -0.141,1.697 0.271,0.985 -0.356,0.319 0.173,0.143 -0.314,-0.067 0.25,0.811 0.39,0.176 -0.067,1.572 0.226,0.087 -0.23,0.683 0.475,0.407 -0.224,-0.183 0.277,0.02 0.149,-0.485 0.243,0.481 0.292,-0.181 -0.012,0.858 0.157,-0.515 0.456,-0.069 0.402,-0.57 0.253,0.156 0.607,-0.438 0.261,0.276 -0.028,-0.574 0.617,-0.109 0.362,-0.689 0.459,0.287 0.599,-0.208 1.886,-2.135 -0.081,-0.582 0.574,-0.104 0.595,-0.644 0.44,0.194 0.968,-1.191 0.039,-0.69 0.541,-0.791 0.334,-0.306 0.699,0.03 0.608,-0.655 0.548,-1.748 1.373,-0.776 0.359,0.251 1.691,-3.138 0.307,0.105 1.076,-1.03 0.954,-0.41 0.865,-1.025 0.852,-0.14 0.465,-0.446 0.571,0.154 0.33,-0.647 0.166,0.224 0.325,-1.271 2.557,-1.04 -0.139,-0.485 0.735,-0.871 1.011,-0.347 0.318,-0.57 0.233,0.44 2.293,-3.238 0.104,0.22 0.202,-0.38 1.196,-0.08 2.35,-1.146 0.524,-1.366 0.549,0.116 1.212,-1.536 0.522,-0.012 1.054,-0.94 1.834,-2.529 0.452,0.073 0.302,-0.385 0.331,0.72 0.455,-0.693 0.2,0.208 0.13,-0.533 0.983,-0.994 0.097,-0.825 -0.004,0.665 0.502,-0.137 0.882,-1.426 0.202,0.388 0.927,-1.422 0.032,0.294 1.193,-0.88 0.191,-1.176 0.132,0.223 0.267,-0.291 0.175,0.56 0.218,-0.516 0.303,0.218 -0.223,-0.34 0.342,-0.348 -0.291,-0.232 0.807,-0.147 0.709,-1.634 0.109,-0.935 -0.294,0.532 0.637,-0.413 -0.173,-0.291 -0.082,0.375 0.217,-1.413 -0.612,0.566 0.386,0.125 0.052,-0.34 0.386,-0.084 -0.377,-0.212 -0.926,-2.752 -0.318,0.05 -0.171,-0.839 -0.491,-0.515 -0.127,-0.894 -0.785,-0.002 -0.956,-2.797 -2.091,-2.94 -0.277,-1.14 -0.477,-0.494 -0.176,0.196 -0.829,-1.763 0.076,-0.592 -0.293,0.079 -1.265,-1.362 -0.711,-0.085 -0.052,-1.252 -0.538,-0.614 0.034,-0.793 -1.078,-1.044 -1.343,-2.159 0.065,-0.333 -0.861,-0.659 -0.991,-1.664 -0.417,-2.038 -0.359,0.181 -1.549,-1.425 -0.583,0.074 -0.569,-1.299 0.21,-0.498 -0.649,-0.448 -2.352,-3.812 -1.777,-1.989 -0.468,0.253 -0.843,-1.723 -1.045,-1.16 -0.111,-0.6 -1.757,-0.999 -0.762,-1.426 -0.515,0.172 -0.116,-0.88 -1.521,-1.298 -0.229,-1.038 -0.18,0.232 -1.478,-0.596 -1.619,-1.825 -0.408,0.103 0.06,-0.422 -0.844,-0.601 -0.463,0.12 -0.795,-0.989 0.004,-0.436 -1.292,-0.503 -0.223,-1.029 -2.04,0.569 0.201,-0.288 -0.407,-0.86 -0.164,-0.202 -0.275,0.221 0.341,-0.415 -1.218,-0.085 0.344,-0.298 -0.113,-0.289 0.266,0.283 0.47,-1.9"
     id="path178" />
</g>
<g
   id="g184"
   transform="translate(-185.80896,-442.56314)">
  <path
     fill="none"
     stroke="#000000"
     stroke-width="4"
     stroke-linecap="round"
     stroke-linejoin="round"
     d="m -388.775,508.677 -0.798,0.33 0.161,-1.664 -0.423,-0.469 0.24,0.124 -0.085,0.498 0.478,-0.181 -0.285,0.156 -0.026,-0.253 -0.341,0.959 0.224,1.012 0.309,0.15 -0.406,1.641 0.645,4.02 -0.327,4.583 0.252,0.331 -0.117,2.076 0.336,0.701 -0.219,0.167 0.029,1.813 -0.402,0.66 0.743,1.733 -0.297,6.43 0.393,0.06 -0.16,2.794 0.436,1.112 0.094,1.533 -0.636,5.081 0.304,1.062 0.285,-0.123 -0.492,1.224 0.109,2.329 -0.211,1.915 -0.276,0.19 0.221,0.811 -0.229,2.172 0.504,0.35 0.483,-0.609"
     id="path182" />
</g>
<g
   id="g188"
   transform="translate(-185.80896,-442.56314)">
  <path
     fill="none"
     stroke="#000000"
     stroke-width="4"
     stroke-linecap="round"
     stroke-linejoin="round"
     d="m -387.988,504.374 -0.201,0.65 0.394,-0.34 -0.171,-0.144 0.825,-0.346 -0.274,0.198 -0.066,-0.254 -0.174,0.907 0.523,-0.836 -0.246,0.398 0.303,0.017 -0.045,0.436 0.21,-0.158 1.063,0.549 0.369,-0.234 0.949,1.3 1.207,0.269 0.975,1.033 1.013,1.361 -0.167,0.411 1.43,0.999 0.378,-0.445 0.336,1.531 0.421,0.262 0.05,1.051 0.116,-0.262 0.624,0.111 0.094,0.636 0.712,0.512 -0.111,0.247 0.429,0.157 0.598,1.033 0.089,0.665 0.695,0.048 0.295,1.105 1.877,1.492 0.575,0.797 0.114,1.06 2.035,1.876 1.217,2.378 0.451,0.099 0.681,1.27 0.411,0.051 0.358,0.607 0.091,-0.314 0.4,1.969 1.235,0.829 0.094,1.194 1.372,1.695 0.46,1.177 0.969,1.08 0.485,-0.31 0.179,0.174 0.615,2.276 0.589,0.239 2.374,2.558 1.09,2.447 1.34,1.009 0.312,-0.256 0.294,1.159 0.526,0.478 -0.045,0.622 0.826,0.201 1.462,0.982 0.939,1.711 0.971,0.117 0.229,0.509 0.125,-0.284 0.958,1.962 0.98,1.147 0.8,0.206 0.224,0.489 0.363,-0.075 0.179,1.257 0.887,1.086 0.398,-0.211 0.386,1.575 1.199,2.141 0.923,-0.044 -0.177,-0.795"
     id="path186" />
</g>
<g
   id="g192"
   transform="translate(-185.80896,-442.56314)">
  <path
     fill="none"
     stroke="#000000"
     stroke-width="4"
     stroke-linecap="round"
     stroke-linejoin="round"
     d="m -385.516,598.224 0.012,-0.701 -0.328,1.358 0.52,-0.515 -0.47,0.262 -0.071,-0.395 0.456,0.066 -0.027,0.46 0.232,-0.68 -0.257,0.002 0.244,0.032 -0.105,0.246 0.402,-0.126 -0.259,-0.499 0.379,0.506 0.132,-0.642 0.386,-0.011 0.337,-0.692 0.154,0.225 0.689,-2.102 0.157,0.34 1.837,-1.194 1.175,-2.651 1.417,-1.437 0.626,-1.242 4.214,-5.203 4.93,-5.181 0.646,0.087 0.266,-0.771 2.491,-3.179 0.442,-1.176 3.974,-3.181 5.928,-6.945 1.007,-0.469 0.38,0.21 0.903,-0.99 2.263,-1.541 0.434,-0.017 0.451,-0.72 0.305,-0.149 0.14,0.406 1.215,-1.173 0.201,-1.043 0.988,-0.728 0.604,0.013 0.67,-0.663 2.037,-3.705 0.018,-1.023 -0.077,0.218 -0.314,-0.185 -0.036,-0.337"
     id="path190" />
</g>
<g
   id="g196"
   transform="translate(-185.80896,-442.56314)">
  <path
     fill="none"
     stroke="#000000"
     stroke-width="4"
     stroke-linecap="round"
     stroke-linejoin="round"
     d="m -384.932,556.119 0.133,-0.744 0.506,-0.301 -0.393,0.072 -0.198,0.601 0.228,0.268 -0.436,0.195 0.32,-0.598 0.278,0.273 -0.16,0.709 0.22,0.014 -0.351,1.461 0.35,3.595 -0.139,3.403 -0.68,3.326 -0.183,7.99 -0.719,4.305 0.179,-0.148 0.316,1.46 -0.502,1.486 0.298,3.687 -0.806,1.357 -0.003,2.32 0.388,0.399 -0.623,1.581 0.348,0.299 -0.38,0.449 -0.179,2.39 0.267,-0.257 -0.125,0.972 0.821,-0.71"
     id="path194" />
</g>
<g
   id="g200"
   transform="translate(-185.80896,-442.56314)">
  <path
     fill="none"
     stroke="#000000"
     stroke-width="4"
     stroke-linecap="round"
     stroke-linejoin="round"
     d="m -457.42,655.509 0.228,-0.17 -0.294,0.362 -0.064,-1 0.075,0.263 -0.413,0.141 0.574,-0.02 -0.303,0.113 0.174,0.36 -0.255,0.195 0.467,-0.339 -0.332,0.824 0.138,2.284 -0.375,0.425 0.36,4.231 -0.407,0.876 0.559,1.547 -0.351,2.17 0.197,-0.174 0.021,2.341 0.323,0.335 -0.277,1.587 0.33,1.234 -0.152,0.66 0.322,0.052 -0.415,4.056 0.103,1.943 0.29,0.196 -0.519,2.325 0.281,3.275 -0.382,1.612 0.216,1.651 -0.215,1.5 0.296,1.748 -0.611,0.741 0.649,2.21 -0.138,2.463 -0.253,0.1 0.276,1.28 -0.093,1.809 -0.356,0.829 0.594,2.965 -0.438,1.598 0.321,1.198 -0.481,4.513 -0.042,4.009 -0.372,0.662 0.293,0.077 0.549,2.604 -0.385,2.189 -0.319,0.158 0.035,5.129 0.297,0.435 -0.142,1.782 -0.325,0.359 0.458,3.081 -0.529,4.635 0.107,1.252 0.314,0.233 -0.493,1.295 0.038,0.837 -0.334,0.228 0.269,1.09 0.257,-0.054 -0.14,1.472 0.343,0.638 -0.431,0.834 -0.146,-0.407 0.092,2.322 0.435,1.036 -0.249,0.321 -0.015,2.149 -0.214,-0.156 0.407,3.459 -0.4,0.78 0.534,2.798 -0.372,1.251 0.752,2.657 -0.554,1.171 0.092,1.039 0.34,0.361 -0.175,1.664 0.332,0.701 -0.549,1.897 0.27,2.152 -0.221,0.187 0.65,2.545 0.419,0.447 -0.325,0.536 0.176,1.219 -0.083,-0.246 -0.246,0.539 -0.36,0.008 -0.052,0.905 0.029,-0.289 -0.195,0.112 -0.034,0.637 0.622,1.411 -0.43,1.834 0.564,2.517 -0.582,2.089 0.184,0.363 0.115,-0.246 0.059,0.506 0.404,-0.097 -0.255,0.233 -0.332,-0.221 0.25,1.456 -0.502,10e-4 0.324,0.278 0.1,-0.29 0.298,1.304 -0.168,0.575 -0.347,-0.781 0.801,-0.417 0.226,-0.681"
     id="path198" />
</g>
<g
   id="g204"
   transform="translate(-185.80896,-442.56314)">
  <path
     fill="none"
     stroke="#000000"
     stroke-width="4"
     stroke-linecap="round"
     stroke-linejoin="round"
     d="m -457.569,657.148 -1.569,-0.459 -0.072,-0.765 -0.461,0.822 0.436,-0.087 0.129,0.313 0.816,-0.736 -0.081,0.324 -0.574,0.186 0.272,-0.261 0.137,0.368 0.032,-0.544 -0.285,0.626 0.583,-0.134 0.657,-0.685 1.862,0.2 0.345,-0.433 0.561,0.461 0.1,0.569 1.312,-0.814 0.013,0.277 1.38,-0.069 0.068,0.342 1.179,-0.561 0.536,0.166 -0.038,0.289 1.832,-0.45 0.829,0.319 1.27,-0.126 0.46,0.34 2.904,-0.612 0.362,-0.328 3.507,0.558 3.623,-0.194 0.512,-0.27 0.825,0.192 0.431,-0.323 1.406,0.412 1.463,-0.111 2.032,-0.809 5.652,0.431 1.332,0.481 0.684,-0.207 2.296,0.441 0.223,0.437 1.155,-0.385 0.593,0.113 0.937,-0.552 3.926,1.243 2.353,-0.121 0.51,-0.353 2.546,0.459 3.172,-0.713 1.342,0.447 3.512,0.023 2.92,-0.285 0.561,-0.439 2.457,1.003 1.475,-0.467 2.09,-0.045 0.456,0.248 1.275,-0.363 1.703,0.145 0.482,0.37 1.152,-0.695 0.567,0.245 0.459,-0.254 1.165,0.644 1.569,-0.22 1.181,-0.729 1.965,-0.316 1.492,-0.131 0.672,0.373 0.968,-0.063 1.702,-0.442 0.726,0.157 0.465,-0.318 1.329,0.398 2.348,-1.192 1.807,0.572 0.104,-0.209 0.522,0.619 0.908,-0.115 0.415,0.273 1.096,-0.527 0.897,0.602 5.681,-0.132 1.313,1.081 0.828,-0.674 1.366,-0.228 0.973,0.69 3.495,-0.101 1.984,0.413 0.448,0.359 1.201,-0.556 0.725,0.125 0.265,-0.592 1.041,0.75 3.716,0.034 0.527,-0.336 0.773,0.283 0.188,0.409 1.856,-0.604 2.072,0.949 2.635,-0.028 0.138,-0.278 0.805,0.295 0.181,0.372 0.263,-0.104 0.121,0.339 0.323,-0.675 0.89,0.637 1.248,0.107 0.126,-0.632 0.233,0.885 -0.233,0.031 0.234,-0.207 -0.233,-0.13 0.435,-0.127 1.263,0.683 0.608,-0.415 0.349,0.936 0.043,-1.075 1.045,1.277 0.112,-0.799 0.06,0.798 0.236,-0.034 -0.364,0.232 0.689,0.439 0.021,-0.241 0.183,0.567 -0.282,0.927 0.368,1.527 -0.53,1.97 0.189,1.63 0.248,0.142 -0.969,4.77 -0.261,5.077 0.321,1.386 -0.042,2.233 0.293,0.644 -0.256,0.636 0.172,2.149 0.265,0.28 -0.233,2.445 0.423,0.854 0.105,1.783 -0.266,3.096 0.264,0.633 -0.248,0.347 0.583,1.529 0.245,6.281 -0.26,1.504 1.279,3.431 -0.243,3.262 0.15,0.981 0.304,0.096 0.033,1.455 -0.444,1.916 1.042,5.018 -0.297,2.541 -0.33,0.622 0.55,2.938 -0.208,3.713 0.252,1.837 -1.043,6.7 0.097,2.46 0.313,0.203 -0.935,8.686 0.46,0.489 -0.328,0.441 0.116,1.399 -0.298,1.012 0.235,-0.016 0.17,1.092 -0.741,3.003 -0.118,2.744 0.337,1.048 -0.226,2.116 -0.383,0.534 0.101,2.84 -0.452,2.892 0.247,1.127 -0.325,3.123 0.08,1.478 0.197,-0.063 -0.385,1.497 0.21,3.065 0.24,0.105 -0.349,1.339 0.078,1.582 0.334,0.58 -0.574,1.505 0.343,0.819 0.153,-0.178 0.084,0.713 -0.139,-0.488 -0.193,1.418 0.274,0.199 -0.167,0.57 0.417,-0.35 -0.192,1.849 0.246,-0.031 -0.004,0.675 0.321,-0.555 -0.128,0.385 -0.158,-0.14 -0.224,1.427 0.407,1.096 0.211,-0.194 -0.237,0.534 -0.318,-0.029 0.324,-1.21"
     id="path202" />
</g>
<g
   id="g208"
   transform="translate(-185.80896,-442.56314)">
  <path
     fill="none"
     stroke="#000000"
     stroke-width="4"
     stroke-linecap="round"
     stroke-linejoin="round"
     d="m -455.63,787.566 0.003,-0.563 -0.346,0.81 -0.243,-0.522 0.844,0.721 -0.173,-0.709 0.895,1.03 2.593,0.106 1.858,1.328 0.523,0.004 0.142,0.224 -0.221,0.037 2.719,0.413 0.582,0.713 1.174,-0.813 0.56,0.651 2.003,0.466 0.257,0.652 0.561,-0.2 -0.09,-0.268 0.684,0.154 0.527,-0.445 0.762,0.38 1.469,-0.473 1.737,0.11 0.212,-0.214 1.874,0.511 2.357,-1.385 1.352,-0.201 1.471,0.247 1.22,-0.28 2.165,0.366 0.582,-0.274 1.275,0.889 1.584,-0.762 0.306,-0.603 5.129,0.783 1.058,-0.278 0.23,-0.34 1.594,-0.112 0.985,0.48 0.839,-0.012 1.068,-0.811 0.461,0.222 0.876,-0.192 6.988,0.36 0.775,-0.541 1.891,0.537 0.769,-0.087 0.409,0.735 1.175,-1.042 0.67,0.037 0.518,-0.338 0.559,0.517 2.281,0.574 0.243,0.467 2.224,-0.745 1.361,0.263 0.082,0.278 1.221,-0.333 0.639,0.113 0.757,0.673 3.794,0.229 0.298,0.392 1.334,-0.555 0.748,0.239 0.467,-0.654 1.462,1.317 0.89,-0.003 0.517,0.454 1.47,-0.194 3.283,0.905 0.511,-0.184 1.081,0.714 2.092,-0.254 0.612,-0.356 1.535,0.226 0.164,0.319 0.943,-0.05 1.004,-0.71 1.34,-0.246 2.43,0.262 1.106,-0.329 0.528,0.259 1.583,-1.091 1.081,-0.02 0.344,-0.33 1.79,0.194 3.009,-0.366 0.817,0.357 0.934,-0.291 1.369,0.561 0.063,0.35 1.577,-0.712 0.798,0.102 0.654,-0.553 0.343,0.281 0.183,-0.425 0.639,0.726 1.207,-0.281 1.712,0.419 0.382,-0.33 1.823,0.534 0.328,0.598 1.211,-0.545 0.227,-0.475 0.373,0.647 2.697,-0.177 0.395,0.314 2.284,-0.662 0.567,-0.526 0.681,0.536 1.64,-0.742 0.271,0.206 0.081,-0.51 0.243,0.606 0.548,0.137 1.305,-0.623 -0.015,-0.938"
     id="path206" />
</g>
<g
   id="g212"
   transform="translate(-185.80896,-442.56314)">
  <path
     fill="none"
     stroke="#000000"
     stroke-width="4"
     stroke-linecap="round"
     stroke-linejoin="round"
     d="m -401.65,772.598 0.274,0.678 -0.397,-0.044 0.557,-0.048 0.174,0.37 -0.034,-0.508 -0.507,0.128 0.368,-0.02 -0.009,0.276 0.149,-0.27 -0.406,-0.299 -0.165,-0.992 -0.303,0.055 -1.246,-2.373 -0.555,-3.503 -1.304,-1.915 -0.471,-1.389 -0.181,0.103 -0.278,-1.907 -1.158,-3.124 -1.668,-2.63 -0.518,-1.953 -0.696,-0.712 -1.253,-2.576 -0.537,0.083 -0.078,-1.132 -0.93,-2.394 -1.135,-1.427 -0.406,0.069 -0.992,-3.504 -0.942,-1.899 -0.919,-0.901 0.02,-0.677 -0.686,-1.531 0.206,-0.221 -0.641,-0.587 -0.283,-1.046 -0.058,0.232 -0.454,-0.337 -0.495,-1.096 -0.196,0.255 -0.333,-1.406 -0.664,-0.799 -0.036,-1.27 -0.349,-0.548 0.24,-0.162 -0.797,-0.997 -0.432,-0.062 -0.412,-1.057 -0.468,-0.139 -0.677,-3.593 -0.75,-0.589 -0.083,0.568 -0.294,-1.151 -0.407,-0.152 -0.139,-1.044 0.351,0.086 -1.304,-1.162 -0.95,-4.234 -1.014,-1.209 -0.099,-2.217 -0.448,-0.02 -0.504,-1.323 -0.436,-0.254 -0.126,-1.143 0.364,-0.29 -0.346,-0.14 -0.056,-0.64 -0.387,1.005 0.098,-1.018 -0.254,-0.08 0.526,-0.116 -0.898,0.006 0.406,0.578 0.09,-0.898 -0.244,0.269 0.279,0.014 0.113,0.487 -0.185,-0.54 -0.373,-0.101 0.593,0.021 -0.561,0.298 0.135,0.234 -0.054,-0.284 0.403,-0.016 -0.149,-0.604 0.068,0.419 0.189,-0.277 -0.281,0.397 0.101,0.647 -0.143,-0.482 -0.445,-0.024 0.343,-0.02 -0.028,-0.445 0.349,0.473 -0.619,0.154 0.314,-0.066 0.044,0.255 0.137,-0.832 -0.295,0.292 0.348,0.92 -0.562,-1.099 0.835,0.639 -0.736,-0.141 0.114,0.564 0.281,-0.205 -0.203,-0.962 0.226,0.736 -0.411,-0.324 0.441,0.222 -0.502,-0.172 -0.034,0.248 0.319,-0.036 0.052,0.322 -0.085,-0.215 0.321,-0.002 -0.328,-0.959 0.386,0.409 -0.494,0.304 -0.146,0.733 0.285,-0.533 -0.282,0.048 0.565,-0.266 -0.442,0.156 0.278,0.37 -0.296,-0.873 0.453,0.679 -0.213,-0.036 0.148,0.836 -0.007,-0.478 -0.522,-0.542 0.205,-0.452 0.082,0.375 0.492,0.151 -0.732,-0.063 0.258,0.353 -0.15,-0.216 -0.087,0.418 0.184,-1.393 0.05,0.453 0.217,-0.206 -0.326,0.487 0.277,0.757 -0.168,-0.646 -0.384,-0.174 0.372,-0.021 -0.214,-0.229 0.362,0.435 -0.114,-0.41 -0.115,0.218 -0.728,-0.332 -0.032,0.321 -0.129,-1.358 0.072,0.289 -0.312,0.042 -0.142,-0.858 -0.199,0.533 0.325,0.597 -0.314,-0.427 -0.339,0.246 0.232,-0.296 -0.255,-0.174 0.32,-0.127 -0.289,-0.212 0.114,-0.602 -0.677,-0.663 -0.19,0.498 0.03,-0.614 -0.059,0.443 0.271,0.075 0.126,-0.461 -0.278,-0.473 -0.25,0.066 0.262,-0.418 -0.211,0.505 -0.23,-0.392 0.339,-0.069 -0.639,-0.038 0.466,0.651 -0.135,-1.929 0.334,1.037 -0.561,0.354 -0.445,-0.294 1.035,-0.087 -0.199,-0.25 0.418,-0.743 0.116,0.353 0.258,-0.058 0.046,-1.415 0.671,-0.478 0.155,-0.945 0.143,0.355 0.693,-0.128 0.21,0.296 0.243,-0.701 -0.292,-0.226 0.893,-1.059 0.476,-0.003 -0.073,-0.916 0.519,-0.559 0.173,0.152 0.949,-1.795 0.142,-1.531 0.302,-0.25 -0.15,0.224 0.477,0.082 -0.068,-0.663 0.433,-0.405 -0.131,-0.832 0.067,0.268 0.734,-0.325 -0.153,-0.926 0.222,-0.289 0.423,0.161 0.726,-2.408 0.398,0.526 0.246,-0.507 -0.229,-0.159 1.428,-0.646 -0.143,-0.621 0.29,-0.631 0.312,0.262 0.187,-0.971 -0.305,-0.551 0.306,0.059 0.332,-0.797 0.34,-0.013 -0.303,-0.714 1.02,-2.375 -0.246,-0.08 0.166,0.389 0.189,-1.846 v 0.359 l 0.503,0.231 -0.408,0.037 -0.138,0.43 -0.131,-0.806 0.062,0.291 0.52,-0.324 -0.375,0.163 0.431,0.116 -0.158,-0.254 -0.281,0.262 0.383,-0.146 -0.228,-0.607 0.148,0.353 0.49,-0.585 0.184,1.567 0.225,-0.766 -0.315,-0.325 0.558,-0.493 0.707,0.603 0.838,0.139 -0.048,0.733 1.293,-1.158 0.259,0.803 0.405,0.175 -0.209,-0.712 1.277,0.109 0.672,0.692 0.588,-1.125 0.369,0.26 0.581,-0.268 -0.117,0.401 0.315,0.332 0.357,-0.27 -0.221,-0.022 0.661,-0.044 1.707,0.178 0.189,0.498 0.842,-0.572 -0.035,-0.332 1.886,0.04 0.61,-0.482 0.216,0.285 1.004,-0.012 0.622,0.347 1.597,-0.297 0.408,0.401 1.655,-0.862 3.188,0.106 0.467,-0.409 0.873,0.993 1.123,-1.299 0.148,0.355 0.82,0.296 -0.341,0.362 0.12,-0.572 0.107,0.58 0.315,-0.376 0.293,0.523 0.282,0.083 -0.019,-0.232 -0.063,0.251 0.336,-0.161 -0.191,-0.467 0.113,0.3 0.481,0.054 0.298,-0.518 0.022,1.138 0.809,-0.571 0.886,0.04 0.595,-0.361 1.568,0.217 0.961,-0.485 1.849,-0.129 1.205,0.396 1.322,-0.463 0.403,-0.667 1.119,0.738 0.434,-0.049 0.394,-0.544 0.189,0.231 -0.406,0.13 0.826,-0.275 0.505,0.555 -0.023,0.538 0.026,-1.134 0.232,0.182 0.002,-0.246 0.567,0.705 0.439,-0.022 -0.379,0.109 1.917,-0.023 1.239,-0.432 2.32,0.341 0.092,0.37 0.561,-0.363 -0.113,-0.312 0.964,0.279 0.332,-0.322 0.42,0.452 1.113,0.171 0.413,0.704 0.463,-0.612 0.16,0.313 0.581,0.036 0.37,-0.311 0.033,0.828 0.628,-0.654 0.004,0.259 0.476,0.118 0.288,0.938 0.086,-0.81 0.085,0.575 0.614,-0.494 0.524,0.482 0.872,-0.072 0.283,0.806 0.855,-0.664 0.976,0.434 0.404,-0.488 0.584,0.808 -0.029,0.76 0.994,-0.333 0.93,0.209 -0.194,0.485 0.082,-0.75 0.292,0.334 0.18,-0.343 0.136,1.022 0.124,-0.474 -0.355,0.172 0.393,-0.02 -0.076,-0.635 0.156,0.344 -0.276,0.346 0.321,-0.019 -0.567,-0.148 0.309,0.164 -0.001,-0.231 0.215,0.499 -0.297,0.687 0.022,-0.931 0.385,0.32 0.139,-0.428 0.057,1.138 1.406,1.69 -0.107,0.394 2.086,1.676 0.284,1.597 0.178,-0.332 0.731,0.7 0.333,-0.636 0.255,1.309 0.555,1.085 0.821,0.395 0.272,1.055 1.287,0.983 0.218,-0.53 0.167,1.664 0.974,0.16 0.172,-0.347 0.384,0.949 0.554,0.029 0.47,0.753 -0.286,0.195 0.059,-0.78 0.42,1.207 0.024,-0.472 0.425,0.009 0.064,0.564 0.764,0.531 -0.176,0.632 0.03,-0.772 0.286,0.215 0.265,-0.489 -0.217,0.598 0.251,0.239 -0.287,0.371 0.23,-0.621 0.523,0.521 0.039,0.588 0.47,0.059 0.058,0.521 0.174,-0.741 0.398,0.984 -0.284,0.041 -0.184,0.702 0.3,-0.962 -0.178,0.209 0.27,-0.011 0.076,0.39 -0.22,0.363 -0.036,-0.721 0.014,0.286 0.388,0.038 -0.332,0.541 0.163,-0.888 -0.59,0.732 -0.41,1.972 -0.566,0.084 -0.799,1.688 -1.591,2.19 -1.18,2.623 -0.837,0.722 0.167,0.67 -1.011,0.513 -0.871,1.12 -0.272,-0.321 -1.185,3.068 -0.415,0.17 -0.231,0.778 -0.899,0.423 0.086,0.42 -0.453,0.473 -0.339,0.024 -0.726,2.985 -0.297,0.423 -0.003,-0.302 -0.735,0.118 -0.446,1.377 0.152,0.41 -0.886,0.918 -1.237,3.33 -0.377,0.018 -0.246,1.136 0.277,0.162 -0.421,0.658 0.174,1.212 -0.059,-0.439 -1.065,0.255 -0.043,-0.46 -0.264,-0.049 -0.466,1.85 -1.98,3.125 -0.711,2.136 -0.201,-0.1 -0.62,0.949 -0.172,1.096 -0.936,0.752 -0.328,0.844 -0.564,-0.101 -1.039,2.683 -1.172,1.896 -0.028,0.734 -1.273,1.428 -0.722,-0.218 0.191,0.155 -0.71,1.512 -0.905,0.67 -0.559,0.907 -0.142,1.024 -1.261,1.644 -0.613,0.343 -0.233,1.461 v -0.278 l -0.46,0.138 -0.385,-0.289 -0.029,0.206 -0.173,-0.735 -0.417,1.402 0.235,0.582 -0.91,1.009 -0.651,0.214 -0.63,1.393 -1.066,0.802 -0.225,1.159 -0.122,-0.278 -0.777,0.257 -0.504,-0.821 0.002,1.571 -1.637,2.232 -0.752,0.283 0.081,0.501 -0.811,1.923 -0.58,0.313 -0.797,1.255 -0.562,0.227 -0.348,0.789 -0.317,-0.158 -0.047,0.397 -0.519,0.305 -0.189,1.046 -1.387,0.807 -0.315,0.557 0.19,0.198 -0.916,0.432 -0.308,0.824 -0.509,0.351 -0.131,0.78 -1.221,0.708 -0.179,-0.479 -0.493,1.325 -1.554,1.786 -0.551,0.173 -0.313,1.481 -1.109,1.028 -0.401,-0.234 -0.32,1.453 -0.526,-0.581 -0.206,0.606 -0.645,0.442 -0.592,-1.847"
     id="path210" />
</g>
<g
   id="g216"
   transform="translate(-185.80896,-442.56314)">
  <path
     fill="none"
     stroke="#000000"
     stroke-width="4"
     stroke-linecap="round"
     stroke-linejoin="round"
     d="m -434.369,705.197 -0.393,0.79 0.281,0.299 -0.169,-0.896 0.273,0.232 -0.091,0.468 0.457,-0.922 0.084,0.796 -0.365,-0.344 0.317,-0.265 0.29,0.309 0.67,-1.303 0.448,0.169 0.21,-0.266 1.362,0.791 1.071,-0.341 0.158,-0.384 3.064,-0.023 0.734,-0.445 1.303,0.142 0.533,0.954 0.556,-1.034 0.804,-0.215 0.725,-0.636 3.239,0.793 3.731,1.496 4.336,-0.498 0.634,0.752 0.832,-1.053 0.738,0.11 0.234,-0.906 0.16,0.467 1.098,0.636 0.821,1.095 1.871,0.264 0.209,0.277 1.089,-0.472 0.571,0.095 0.348,-0.415 0.673,1.028 0.495,-0.334 0.672,0.109 0.161,-0.341 3.037,1.223 2.773,0.356 2.461,-0.587 0.34,-0.502 1.253,-0.011 0.607,0.321 0.86,-0.245 0.319,0.239 3.166,-0.694 1.673,0.203 3.436,-0.309 1.206,-0.41 0.271,0.199 1.287,-0.987 0.224,-0.68 1.109,-0.172 0.472,-0.464 1.06,0.635 1.84,-0.862 1.592,0.027 4.042,-0.762 1.64,-0.862 0.238,-0.753 1.419,0.739 0.532,-0.087 0.281,0.509 0.957,-0.389 1.388,0.037 4.866,0.856 0.806,0.031 0.126,-0.234 2.116,0.887 0.326,0.61 0.774,-0.261 0.369,0.246 1.043,-0.137 0.538,-0.437 0.576,0.398 0.5,-0.206 0.814,0.226 0.079,0.284 1.592,0.399 0.711,-0.136 0.373,0.302 1.767,-1.435 1.003,-1.807"
     id="path214" />
</g>
<g
   id="g220"
   transform="translate(-185.80896,-442.56314)">
  <path
     fill="none"
     stroke="#000000"
     stroke-width="4"
     stroke-linecap="round"
     stroke-linejoin="round"
     d="m -410.777,683.557 -0.004,0.275 0.987,-0.925 0.13,-0.582 0.298,0.351 -0.368,-0.068 -0.076,0.387 -0.128,-0.687 0.569,0.264 -0.53,0.553 0.189,0.156 -0.303,-0.178 -0.838,3.162 -0.278,0.537 -0.415,0.116 -0.258,1.739 -0.712,1.462 0.071,0.982 -1.183,2.191 -0.604,2.936 -1.115,2.264 -0.118,1.242 -0.925,1.437 -0.11,1.826 -0.601,1.436 -0.183,-0.111 0.784,-1.73"
     id="path218" />
</g>
<g
   id="g224"
   transform="translate(-185.80896,-442.56314)">
  <path
     fill="none"
     stroke="#000000"
     stroke-width="4"
     stroke-linecap="round"
     stroke-linejoin="round"
     d="m -396.308,683.731 0.077,0.881 0.102,0.257 0.288,-0.126 0.062,0.382 -0.241,0.554 0.135,-0.796 0.151,0.67 -0.329,1.268 -0.271,0.051 0.228,1.76 -0.512,3.993 -0.403,0.823 -0.131,2.507 -1.228,3.119 -0.396,2.624 -1.384,3.944 0.493,0.323 0.578,-1.89"
     id="path222" />
</g>
<g
   id="g228"
   transform="translate(-185.80896,-442.56314)">
  <path
     fill="none"
     stroke="#000000"
     stroke-width="4"
     stroke-linecap="round"
     stroke-linejoin="round"
     d="m -382.929,683.186 -0.275,-0.185 0.027,-0.565 -0.321,0.613 0.044,-0.301 0.437,-0.011 0.045,-0.523 0.073,0.64 0.336,-0.06 -0.47,-0.008 0.271,0.057 -0.191,0.259 -0.16,-0.227 0.176,-0.124 0.408,0.95 -0.064,0.625 1.064,2.594 -0.947,8.437 -0.263,0.261 0.094,3.77 0.348,0.891 -0.521,2.354 0.271,1.015 0.476,-0.746"
     id="path226" />
</g>
<g
   id="g232"
   transform="translate(-185.80896,-442.56314)">
  <path
     fill="none"
     stroke="#000000"
     stroke-width="4"
     stroke-linecap="round"
     stroke-linejoin="round"
     d="m -369.708,686.32 -0.809,-0.529 -1.573,0.161 0.615,0.018 0.163,-0.49 0.29,0.769 -0.267,-0.011 0.053,0.787 -0.258,-0.811 0.37,0.127 0.606,1.815 1.105,1.428 1.789,5.054 0.929,0.855 0.16,-0.211 1.023,3.699 1.77,1.608 0.732,1.598 1.383,1.68 0.395,-0.158"
     id="path230" />
</g>
<g
   id="g236"
   transform="translate(-185.80896,-442.56314)">
  <path
     fill="none"
     stroke="#000000"
     stroke-width="4"
     stroke-linecap="round"
     stroke-linejoin="round"
     d="m -417.594,701.766 -0.051,-0.374 0.369,0.311 0.211,-0.296 -0.467,0.728 -0.151,-0.316 0.556,-0.167 -0.188,0.202 0.249,0.375 -0.303,0.303 0.133,-0.6 -0.226,-0.118 0.149,0.294 0.385,-0.041 -0.078,1.98 -0.263,0.238 0.768,1.377 0.181,3.22 1.172,2.619 0.366,3.327 2.148,6.293 0.001,2.051 0.349,1.215 0.905,1.171 0.317,1.098 0.298,0.083 -0.066,1.651 0.81,0.894 0.336,2.894 1.405,1.566 0.402,1.23 0.31,0.121 0.564,3.489 0.772,1.043 0.395,1.783 0.64,0.788 -0.163,1.373 0.589,0.837 1.558,4.248 0.409,0.39 0.177,1.39 0.669,1.489 -0.017,1.342 1.91,5.965 0.531,3.164 1.78,4.62 0.186,3.836 0.833,2.378 0.147,-0.219 -0.022,2.232 0.356,0.89"
     id="path234" />
</g>
<g
   id="g240"
   transform="translate(-185.80896,-442.56314)">
  <path
     fill="none"
     stroke="#000000"
     stroke-width="4"
     stroke-linecap="round"
     stroke-linejoin="round"
     d="m -401.845,710.225 0.058,0.573 -0.541,0.964 0.138,-0.553 0.394,0.048 0.151,-0.293 -0.139,0.369 0.487,0.972 0.118,-0.461 0.274,0.512 0.114,-0.203 -0.086,0.97 -0.256,0.092 0.579,1.547 -0.206,0.672 0.204,4.884 0.837,4.77 -0.104,2.074 0.825,4.479 0.245,4.904 0.352,1.473 -0.292,-0.013 0.771,2.673 0.472,0.694 -0.334,1.639 0.66,4.604 -0.191,0.52 0.588,2.118 -0.142,0.49 0.607,0.341 0.274,1.044 0.384,0.074 0.129,2.363 -0.223,0.436 1.223,3.275 0.512,5.888 0.712,3.942 -0.091,1.225 0.722,3.04 -0.122,6.928"
     id="path238" />
</g>
<g
   id="g244"
   transform="translate(-185.80896,-442.56314)">
  <path
     fill="none"
     stroke="#000000"
     stroke-width="4"
     stroke-linecap="round"
     stroke-linejoin="round"
     d="m -382.374,708.194 -0.48,-0.04 0.115,0.236 0.182,-0.193 0.02,0.699 -0.278,-0.133 0.23,0.08 -0.256,1.282 -0.669,0.838 -0.947,4.058 -0.392,0.617 -0.549,4.785 -0.464,1.527 -0.008,3.237 -0.916,3.976 -0.023,1.47 -0.816,1.603 0.184,2.823 -0.687,6.134 -0.781,2.327 0.034,2.111 -0.628,4.644 -0.224,0.834 -0.472,0.324 0.229,0.303 -0.359,3.013 0.163,0.727 -1.191,3.889 -0.061,3.287 -0.161,-0.218 0.06,0.648 -0.504,1.328 -0.02,1.882 -0.413,1.133 0.483,2.756 0.432,0.512 -0.452,2.072 0.062,1.178 0.497,0.45"
     id="path242" />
</g>
<g
   id="g248"
   transform="translate(-185.80896,-442.56314)">
  <path
     fill="none"
     stroke="#000000"
     stroke-width="4"
     stroke-linecap="round"
     stroke-linejoin="round"
     d="m -363.293,708.819 0.297,-0.4 -0.272,-0.264 0.192,-0.629 -0.01,1.203 -0.372,0.222 -0.035,-0.682 0.408,0.529 -0.352,0.048 -0.299,1.412 -1.216,2.082 -0.332,2.313 -1.203,2.905 -0.196,2.203 -1.714,6.34 -1.654,4.135 -0.365,0.212 -0.284,1.593 -1.018,2.389 -0.647,0.766 -0.612,3.917 -0.647,1.19 -0.198,1.642 -0.418,0.428 -0.288,1.437 -0.882,0.428 -1.093,3.574 -1.232,2.713 -0.383,0.271 0.019,1.026 -0.996,1.058 -0.018,0.793 -0.221,-0.197 -0.402,0.532 -0.275,-0.123 -0.139,1.986 -0.785,1.845 -0.815,1.018 -0.465,2.348 -0.395,0.743 -0.281,-0.189 -0.189,1.409 -1.256,2.373 -0.34,-0.27 -1.06,3.72 -1.205,1.038"
     id="path246" />
</g>
</svg>
