<?xml version="1.0" encoding="UTF-8" standalone="no"?>
<svg
   width="99.988594"
   height="100.01145"
   viewBox="-702 0 99.988595 100.01146"
   version="1.2"
   id="svg250"
   sodipodi:docname="speedup.svg"
   inkscape:version="1.2.2 (b0a84865, 2022-12-01)"
   xmlns:inkscape="http://www.inkscape.org/namespaces/inkscape"
   xmlns:sodipodi="http://sodipodi.sourceforge.net/DTD/sodipodi-0.dtd"
   xmlns="http://www.w3.org/2000/svg"
   xmlns:svg="http://www.w3.org/2000/svg"
   xmlns:rdf="http://www.w3.org/1999/02/22-rdf-syntax-ns#"
   xmlns:cc="http://creativecommons.org/ns#"
   xmlns:dc="http://purl.org/dc/elements/1.1/"><defs
   id="defs254" />
<sodipodi:namedview
   id="namedview252"
   pagecolor="#ffffff"
   bordercolor="#666666"
   borderopacity="1.0"
   inkscape:showpageshadow="2"
   inkscape:pageopacity="0.0"
   inkscape:pagecheckerboard="0"
   inkscape:deskcolor="#d1d1d1"
   showgrid="false"
   inkscape:zoom="3.394873"
   inkscape:cx="63.478075"
   inkscape:cy="85.570212"
   inkscape:window-width="1440"
   inkscape:window-height="797"
   inkscape:window-x="0"
   inkscape:window-y="25"
   inkscape:window-maximized="1"
   inkscape:current-layer="svg250" />
<title
   id="title2">Quick sheets</title>

\n<g
   id="g168"
   transform="matrix(0.69354736,0,0,0.69926356,-381.84341,-333.91374)">
  <path
     fill="none"
     stroke="#000000"
     stroke-width="4"
     stroke-linecap="round"
     stroke-linejoin="round"
     d="m -457.37,480.522 0.227,-0.171 -0.293,0.363 -0.065,-1.001 0.075,0.264 -0.412,0.14 0.574,-0.02 -0.304,0.113 0.174,0.36 -0.254,0.195 0.467,-0.338 -0.333,0.824 0.138,2.283 -0.375,0.425 0.36,4.232 -0.406,0.876 0.559,1.547 -0.352,2.17 0.198,-0.175 0.02,2.341 0.324,0.336 -0.278,1.586 0.33,1.234 -0.151,0.661 0.321,0.052 -0.415,4.056 0.104,1.943 0.289,0.196 -0.519,2.324 0.282,3.276 -0.383,1.611 0.216,1.652 -0.215,1.5 0.296,1.748 -0.611,0.741 0.649,2.21 -0.138,2.462 -0.252,0.1 0.276,1.28 -0.094,1.81 -0.356,0.829 0.594,2.964 -0.438,1.598 0.322,1.199 -0.482,4.513 -0.042,4.008 -0.372,0.662 0.293,0.077 0.549,2.604 -0.385,2.189 -0.319,0.159 0.035,5.129 0.297,0.434 -0.142,1.783 -0.325,0.358 0.458,3.081 -0.529,4.636 0.107,1.251 0.315,0.233 -0.494,1.295 0.039,0.838 -0.335,0.227 0.27,1.091 0.257,-0.055 -0.141,1.473 0.343,0.637 -0.43,0.835 -0.147,-0.408 0.092,2.322 0.436,1.036 -0.25,0.322 -0.015,2.149 -0.214,-0.156 0.407,3.459 -0.4,0.78 0.534,2.798 -0.372,1.251 0.753,2.656 -0.555,1.172 0.092,1.038 0.341,0.362 -0.175,1.663 0.331,0.701 -0.549,1.897 0.271,2.153 -0.222,0.187 0.65,2.545 0.419,0.446 -0.325,0.537 0.176,1.219 -0.083,-0.246 -0.246,0.539 -0.359,0.008 -0.052,0.904 0.028,-0.289 -0.195,0.113 -0.034,0.636 0.622,1.412 -0.43,1.834 0.564,2.516 -0.581,2.089 0.183,0.364 0.115,-0.246 0.059,0.505 0.404,-0.097 -0.255,0.234 -0.331,-0.222 0.25,1.457 -0.503,10e-4 0.324,0.278 0.101,-0.29 0.298,1.303 -0.169,0.576 -0.347,-0.781 0.801,-0.417 0.227,-0.681"
     id="path166" />
</g>
<g
   id="g172"
   transform="matrix(0.69354736,0,0,0.69926356,-381.84341,-333.91374)">
  <path
     fill="none"
     stroke="#000000"
     stroke-width="4"
     stroke-linecap="round"
     stroke-linejoin="round"
     d="m -457.519,482.161 -1.57,-0.459 -0.072,-0.765 -0.461,0.821 0.436,-0.086 0.13,0.313 0.815,-0.736 -0.081,0.324 -0.574,0.185 0.272,-0.261 0.138,0.369 0.031,-0.545 -0.285,0.626 0.583,-0.133 0.657,-0.686 1.862,0.2 0.346,-0.432 0.561,0.46 0.099,0.57 1.312,-0.815 0.013,0.278 1.381,-0.069 0.067,0.341 1.179,-0.56 0.537,0.166 -0.039,0.289 1.833,-0.45 0.829,0.318 1.269,-0.125 0.461,0.34 2.904,-0.612 0.361,-0.328 3.507,0.558 3.623,-0.195 0.513,-0.269 0.824,0.192 0.432,-0.324 1.406,0.412 1.462,-0.11 2.032,-0.81 5.653,0.432 1.331,0.481 0.684,-0.207 2.296,0.44 0.224,0.437 1.155,-0.384 0.592,0.113 0.937,-0.552 3.926,1.243 2.354,-0.122 0.509,-0.353 2.547,0.459 3.171,-0.713 1.343,0.448 3.512,0.023 2.919,-0.285 0.561,-0.439 2.458,1.003 1.475,-0.468 2.09,-0.044 0.455,0.248 1.276,-0.363 1.702,0.144 0.483,0.37 1.151,-0.694 0.567,0.245 0.459,-0.254 1.166,0.644 1.568,-0.22 1.182,-0.729 1.965,-0.317 1.492,-0.131 0.671,0.373 0.968,-0.063 1.702,-0.441 0.726,0.157 0.465,-0.319 1.329,0.398 2.348,-1.191 1.807,0.571 0.104,-0.208 0.522,0.619 0.908,-0.115 0.415,0.273 1.096,-0.528 0.897,0.603 5.681,-0.133 1.313,1.082 0.828,-0.674 1.366,-0.229 0.973,0.69 3.495,-0.1 1.984,0.413 0.449,0.359 1.2,-0.557 0.725,0.126 0.265,-0.593 1.041,0.75 3.716,0.035 0.527,-0.336 0.773,0.282 0.188,0.409 1.856,-0.604 2.073,0.95 2.634,-0.029 0.138,-0.277 0.805,0.295 0.181,0.372 0.263,-0.104 0.121,0.339 0.323,-0.675 0.89,0.637 1.248,0.107 0.127,-0.632 0.233,0.885 -0.234,0.03 0.234,-0.206 -0.233,-0.13 0.435,-0.127 1.263,0.683 0.609,-0.416 0.348,0.937 0.043,-1.076 1.045,1.277 0.112,-0.798 0.06,0.798 0.236,-0.034 -0.364,0.232 0.689,0.439 0.021,-0.242 0.183,0.568 -0.281,0.927 0.367,1.527 -0.529,1.97 0.188,1.63 0.248,0.141 -0.968,4.77 -0.262,5.077 0.321,1.387 -0.042,2.233 0.293,0.643 -0.256,0.637 0.172,2.149 0.265,0.28 -0.233,2.445 0.424,0.853 0.104,1.784 -0.266,3.096 0.265,0.633 -0.249,0.347 0.583,1.529 0.246,6.281 -0.261,1.504 1.279,3.431 -0.243,3.262 0.15,0.98 0.305,0.096 0.032,1.455 -0.443,1.917 1.041,5.018 -0.297,2.541 -0.329,0.621 0.55,2.938 -0.209,3.713 0.252,1.838 -1.043,6.7 0.097,2.46 0.313,0.202 -0.935,8.686 0.461,0.49 -0.329,0.44 0.116,1.4 -0.298,1.011 0.236,-0.015 0.169,1.092 -0.741,3.003 -0.117,2.743 0.336,1.049 -0.226,2.116 -0.383,0.534 0.102,2.84 -0.452,2.891 0.246,1.128 -0.324,3.122 0.079,1.479 0.197,-0.064 -0.385,1.498 0.21,3.065 0.241,0.104 -0.35,1.34 0.078,1.582 0.334,0.58 -0.574,1.504 0.344,0.819 0.152,-0.177 0.084,0.713 -0.138,-0.489 -0.193,1.418 0.273,0.2 -0.167,0.569 0.417,-0.349 -0.192,1.848 0.246,-0.03 -0.003,0.675 0.321,-0.555 -0.129,0.385 -0.157,-0.14 -0.225,1.426 0.407,1.097 0.212,-0.194 -0.238,0.534 -0.317,-0.029 0.323,-1.21"
     id="path170" />
</g>
<g
   id="g176"
   transform="matrix(0.69354736,0,0,0.69926356,-381.84341,-333.91374)">
  <path
     fill="none"
     stroke="#000000"
     stroke-width="4"
     stroke-linecap="round"
     stroke-linejoin="round"
     d="m -455.58,612.579 0.002,-0.563 -0.346,0.81 -0.243,-0.522 0.844,0.72 -0.172,-0.708 0.895,1.03 2.592,0.105 1.858,1.329 0.523,0.004 0.142,0.223 -0.221,0.038 2.719,0.413 0.582,0.713 1.174,-0.814 0.56,0.651 2.004,0.467 0.257,0.652 0.56,-0.2 -0.09,-0.268 0.684,0.154 0.528,-0.446 0.761,0.381 1.47,-0.473 1.736,0.11 0.212,-0.214 1.874,0.511 2.358,-1.385 1.351,-0.202 1.471,0.247 1.22,-0.279 2.165,0.366 0.583,-0.274 1.274,0.889 1.585,-0.762 0.305,-0.604 5.129,0.783 1.058,-0.277 0.23,-0.341 1.594,-0.111 0.985,0.479 0.84,-0.011 1.067,-0.811 0.461,0.222 0.876,-0.192 6.988,0.359 0.775,-0.541 1.891,0.537 0.769,-0.086 0.409,0.735 1.176,-1.042 0.67,0.036 0.517,-0.337 0.559,0.517 2.281,0.574 0.244,0.466 2.223,-0.745 1.362,0.263 0.081,0.279 1.222,-0.333 0.638,0.112 0.758,0.673 3.793,0.23 0.298,0.391 1.335,-0.554 0.747,0.239 0.468,-0.654 1.461,1.317 0.89,-0.003 0.518,0.454 1.47,-0.194 3.283,0.905 0.51,-0.185 1.081,0.714 2.092,-0.254 0.612,-0.356 1.536,0.227 0.163,0.319 0.944,-0.051 1.003,-0.709 1.34,-0.247 2.43,0.263 1.106,-0.329 0.528,0.259 1.583,-1.092 1.081,-0.02 0.344,-0.329 1.79,0.193 3.009,-0.366 0.817,0.358 0.935,-0.291 1.369,0.56 0.063,0.351 1.576,-0.712 0.798,0.102 0.654,-0.553 0.343,0.281 0.183,-0.425 0.64,0.726 1.206,-0.282 1.712,0.42 0.382,-0.33 1.823,0.533 0.328,0.599 1.211,-0.546 0.228,-0.474 0.372,0.646 2.697,-0.176 0.395,0.313 2.284,-0.661 0.567,-0.526 0.681,0.536 1.641,-0.743 0.27,0.206 0.081,-0.51 0.243,0.607 0.548,0.137 1.305,-0.623 -0.014,-0.938"
     id="path174" />
</g>
<g
   id="g180"
   transform="matrix(0.69354736,0,0,0.69926356,-381.84341,-333.91374)">
  <path
     fill="none"
     stroke="#000000"
     stroke-width="4"
     stroke-linecap="round"
     stroke-linejoin="round"
     d="m -437.021,502.757 -0.027,1.267 -0.207,0.003 0.353,0.55 -0.323,0.415 0.434,-0.447 -0.318,0.243 0.149,0.358 0.301,-0.061 -0.278,0.325 0.194,0.073 0.034,-0.45 -0.381,0.493 0.247,0.837 -0.247,0.456 0.651,0.541 -0.647,1.921 0.471,1.651 -0.119,1.751 0.485,0.454 -0.254,0.089 -0.398,1.743 0.249,1.762 0.322,0.256 -0.693,1.543 0.374,1.341 -0.033,2.264 0.206,-0.072 -0.321,1.731 0.274,0.98 -0.029,2.555 0.251,0.163 -0.305,0.756 0.088,1.671 -0.51,1.232 0.229,0.029 0.157,2.205 0.478,0.354 -0.559,1.457 -0.2,1.755 0.752,3.186 -0.308,0.311 0.246,0.665 -0.518,2.953 0.624,2.408 -0.381,1.104 0.526,1.704 0.139,2.803 0.235,-0.266 -0.72,3.562 0.155,1.567 -0.512,3.005 0.216,1.463 0.338,0.012 0.049,0.359 -0.339,0.782 0.094,0.77 -0.294,0.245 0.217,0.277 -0.197,1.334 0.446,1.908 0.569,0.344 -0.249,0.023 -0.15,1.123 -0.31,0.098 0.528,0.845 -0.167,2.873 0.188,-0.26 0.108,0.844 -0.317,0.788 0.059,2.938 -0.335,1.059 0.109,-0.383 0.246,0.529 -0.436,1.123 0.377,0.391 -0.297,2.331 0.204,0.316 -0.408,2.949 -0.457,0.291 0.416,1.118 -0.159,0.308 0.497,0.346 -0.671,1.086 0.415,2.686 -0.188,0.368 0.306,0.727 -0.54,1.008 0.29,0.624 0.267,-0.118 -0.247,1.735 -0.35,0.15 0.236,0.247 0.165,-0.225 -0.141,1.697 0.271,0.985 -0.356,0.319 0.173,0.143 -0.314,-0.067 0.25,0.811 0.39,0.176 -0.067,1.572 0.226,0.087 -0.23,0.683 0.475,0.407 -0.224,-0.183 0.277,0.02 0.149,-0.485 0.243,0.481 0.292,-0.181 -0.012,0.858 0.157,-0.515 0.456,-0.069 0.402,-0.57 0.253,0.156 0.607,-0.438 0.261,0.276 -0.028,-0.574 0.617,-0.109 0.362,-0.689 0.459,0.287 0.599,-0.208 1.886,-2.135 -0.081,-0.582 0.574,-0.104 0.595,-0.644 0.44,0.194 0.968,-1.191 0.039,-0.69 0.541,-0.791 0.334,-0.306 0.699,0.03 0.608,-0.655 0.548,-1.748 1.373,-0.776 0.359,0.251 1.691,-3.138 0.307,0.105 1.076,-1.03 0.954,-0.41 0.865,-1.025 0.852,-0.14 0.465,-0.446 0.571,0.154 0.33,-0.647 0.166,0.224 0.325,-1.271 2.557,-1.04 -0.139,-0.485 0.735,-0.871 1.011,-0.347 0.318,-0.57 0.233,0.44 2.293,-3.238 0.104,0.22 0.202,-0.38 1.196,-0.08 2.35,-1.146 0.524,-1.366 0.549,0.116 1.212,-1.536 0.522,-0.012 1.054,-0.94 1.834,-2.529 0.452,0.073 0.302,-0.385 0.331,0.72 0.455,-0.693 0.2,0.208 0.13,-0.533 0.983,-0.994 0.097,-0.825 -0.004,0.665 0.502,-0.137 0.882,-1.426 0.202,0.388 0.927,-1.422 0.032,0.294 1.193,-0.88 0.191,-1.176 0.132,0.223 0.267,-0.291 0.175,0.56 0.218,-0.516 0.303,0.218 -0.223,-0.34 0.342,-0.348 -0.291,-0.232 0.807,-0.147 0.709,-1.634 0.109,-0.935 -0.294,0.532 0.637,-0.413 -0.173,-0.291 -0.082,0.375 0.217,-1.413 -0.612,0.566 0.386,0.125 0.052,-0.34 0.386,-0.084 -0.377,-0.212 -0.926,-2.752 -0.318,0.05 -0.171,-0.839 -0.491,-0.515 -0.127,-0.894 -0.785,-0.002 -0.956,-2.797 -2.091,-2.94 -0.277,-1.14 -0.477,-0.494 -0.176,0.196 -0.829,-1.763 0.076,-0.592 -0.293,0.079 -1.265,-1.362 -0.711,-0.085 -0.052,-1.252 -0.538,-0.614 0.034,-0.793 -1.078,-1.044 -1.343,-2.159 0.065,-0.333 -0.861,-0.659 -0.991,-1.664 -0.417,-2.038 -0.359,0.181 -1.549,-1.425 -0.583,0.074 -0.569,-1.299 0.21,-0.498 -0.649,-0.448 -2.352,-3.812 -1.777,-1.989 -0.468,0.253 -0.843,-1.723 -1.045,-1.16 -0.111,-0.6 -1.757,-0.999 -0.762,-1.426 -0.515,0.172 -0.116,-0.88 -1.521,-1.298 -0.229,-1.038 -0.18,0.232 -1.478,-0.596 -1.619,-1.825 -0.408,0.103 0.06,-0.422 -0.844,-0.601 -0.463,0.12 -0.795,-0.989 0.004,-0.436 -1.292,-0.503 -0.223,-1.029 -2.04,0.569 0.201,-0.288 -0.407,-0.86 -0.164,-0.202 -0.275,0.221 0.341,-0.415 -1.218,-0.085 0.344,-0.298 -0.113,-0.289 0.266,0.283 0.47,-1.9"
     id="path178" />
</g>
<g
   id="g184"
   transform="matrix(0.69354736,0,0,0.69926356,-381.84341,-333.91374)">
  <path
     fill="none"
     stroke="#000000"
     stroke-width="4"
     stroke-linecap="round"
     stroke-linejoin="round"
     d="m -388.775,508.677 -0.798,0.33 0.161,-1.664 -0.423,-0.469 0.24,0.124 -0.085,0.498 0.478,-0.181 -0.285,0.156 -0.026,-0.253 -0.341,0.959 0.224,1.012 0.309,0.15 -0.406,1.641 0.645,4.02 -0.327,4.583 0.252,0.331 -0.117,2.076 0.336,0.701 -0.219,0.167 0.029,1.813 -0.402,0.66 0.743,1.733 -0.297,6.43 0.393,0.06 -0.16,2.794 0.436,1.112 0.094,1.533 -0.636,5.081 0.304,1.062 0.285,-0.123 -0.492,1.224 0.109,2.329 -0.211,1.915 -0.276,0.19 0.221,0.811 -0.229,2.172 0.504,0.35 0.483,-0.609"
     id="path182" />
</g>
<g
   id="g188"
   transform="matrix(0.69354736,0,0,0.69926356,-381.84341,-333.91374)">
  <path
     fill="none"
     stroke="#000000"
     stroke-width="4"
     stroke-linecap="round"
     stroke-linejoin="round"
     d="m -387.988,504.374 -0.201,0.65 0.394,-0.34 -0.171,-0.144 0.825,-0.346 -0.274,0.198 -0.066,-0.254 -0.174,0.907 0.523,-0.836 -0.246,0.398 0.303,0.017 -0.045,0.436 0.21,-0.158 1.063,0.549 0.369,-0.234 0.949,1.3 1.207,0.269 0.975,1.033 1.013,1.361 -0.167,0.411 1.43,0.999 0.378,-0.445 0.336,1.531 0.421,0.262 0.05,1.051 0.116,-0.262 0.624,0.111 0.094,0.636 0.712,0.512 -0.111,0.247 0.429,0.157 0.598,1.033 0.089,0.665 0.695,0.048 0.295,1.105 1.877,1.492 0.575,0.797 0.114,1.06 2.035,1.876 1.217,2.378 0.451,0.099 0.681,1.27 0.411,0.051 0.358,0.607 0.091,-0.314 0.4,1.969 1.235,0.829 0.094,1.194 1.372,1.695 0.46,1.177 0.969,1.08 0.485,-0.31 0.179,0.174 0.615,2.276 0.589,0.239 2.374,2.558 1.09,2.447 1.34,1.009 0.312,-0.256 0.294,1.159 0.526,0.478 -0.045,0.622 0.826,0.201 1.462,0.982 0.939,1.711 0.971,0.117 0.229,0.509 0.125,-0.284 0.958,1.962 0.98,1.147 0.8,0.206 0.224,0.489 0.363,-0.075 0.179,1.257 0.887,1.086 0.398,-0.211 0.386,1.575 1.199,2.141 0.923,-0.044 -0.177,-0.795"
     id="path186" />
</g>
<g
   id="g192"
   transform="matrix(0.69354736,0,0,0.69926356,-381.84341,-333.91374)">
  <path
     fill="none"
     stroke="#000000"
     stroke-width="4"
     stroke-linecap="round"
     stroke-linejoin="round"
     d="m -385.516,598.224 0.012,-0.701 -0.328,1.358 0.52,-0.515 -0.47,0.262 -0.071,-0.395 0.456,0.066 -0.027,0.46 0.232,-0.68 -0.257,0.002 0.244,0.032 -0.105,0.246 0.402,-0.126 -0.259,-0.499 0.379,0.506 0.132,-0.642 0.386,-0.011 0.337,-0.692 0.154,0.225 0.689,-2.102 0.157,0.34 1.837,-1.194 1.175,-2.651 1.417,-1.437 0.626,-1.242 4.214,-5.203 4.93,-5.181 0.646,0.087 0.266,-0.771 2.491,-3.179 0.442,-1.176 3.974,-3.181 5.928,-6.945 1.007,-0.469 0.38,0.21 0.903,-0.99 2.263,-1.541 0.434,-0.017 0.451,-0.72 0.305,-0.149 0.14,0.406 1.215,-1.173 0.201,-1.043 0.988,-0.728 0.604,0.013 0.67,-0.663 2.037,-3.705 0.018,-1.023 -0.077,0.218 -0.314,-0.185 -0.036,-0.337"
     id="path190" />
</g>
<g
   id="g196"
   transform="matrix(0.69354736,0,0,0.69926356,-381.84341,-333.91374)">
  <path
     fill="none"
     stroke="#000000"
     stroke-width="4"
     stroke-linecap="round"
     stroke-linejoin="round"
     d="m -384.932,556.119 0.133,-0.744 0.506,-0.301 -0.393,0.072 -0.198,0.601 0.228,0.268 -0.436,0.195 0.32,-0.598 0.278,0.273 -0.16,0.709 0.22,0.014 -0.351,1.461 0.35,3.595 -0.139,3.403 -0.68,3.326 -0.183,7.99 -0.719,4.305 0.179,-0.148 0.316,1.46 -0.502,1.486 0.298,3.687 -0.806,1.357 -0.003,2.32 0.388,0.399 -0.623,1.581 0.348,0.299 -0.38,0.449 -0.179,2.39 0.267,-0.257 -0.125,0.972 0.821,-0.71"
     id="path194" />
</g>
<metadata
   id="metadata248">
  <rdf:RDF>
    <cc:Work
       rdf:about="">
      <dc:title>Quick sheets</dc:title>
    </cc:Work>
  </rdf:RDF>
</metadata>
<path
   style="fill:#00ff00;stroke-width:1.55768"
   d="m -641.85403,96.35955 c -1.45901,-0.312528 -2.82898,-0.745918 -3.04438,-0.963095 -0.21731,-0.2191 -1.43202,-0.285223 -2.72901,-0.148537 -1.53865,0.162138 -2.43515,0.0868 -2.62351,-0.2205 -0.16103,-0.262692 -1.36418,-0.466807 -2.75161,-0.466807 -1.35599,0 -2.77653,-0.150202 -3.15675,-0.333794 -0.38021,-0.183584 -3.92359,-0.175396 -7.87417,0.01818 -3.95057,0.19359 -7.82931,0.319325 -8.61942,0.279411 -0.79011,-0.03993 -1.80598,-0.0551 -2.25748,-0.0337 -0.45149,0.02133 -2.15428,0.03622 -3.78398,0.03301 -1.6297,-0.0035 -3.31672,0.184949 -3.74893,0.418175 -1.85048,0.998499 -9.78763,0.332646 -11.6416,-0.976627 -0.50321,-0.355372 -1.22061,-0.646119 -1.59424,-0.646119 -0.37361,0 -0.89752,-0.265098 -1.16421,-0.589102 -0.67266,-0.817188 -1.07269,-15.042027 -0.89121,-31.689819 0.0806,-7.397247 0.16976,-23.082034 0.19804,-34.855081 l 0.0515,-21.4055417 1.02612,-0.2081827 c 1.12761,-0.2287753 15.28239,-0.8241028 18.88066,-0.7940909 1.24161,0.010356 3.64273,0.1766019 5.33584,0.3694359 4.13451,0.4708961 26.20779,0.6076465 27.50008,0.1703711 0.56438,-0.1909653 2.50375,-0.4481346 4.30972,-0.5714875 1.80597,-0.1233528 3.56064,-0.2482943 3.89926,-0.2776476 0.33863,-0.029354 1.44684,0.056034 2.4627,0.1897481 2.1575,0.2839857 6.64972,0.5791802 13.66361,0.8978681 5.80529,0.2637727 12.08778,0.9880812 13.10443,1.5108087 0.61114,0.3142258 0.66911,0.786432 0.43741,3.5623071 -0.36042,4.3177994 -0.3402,8.6930154 0.0722,15.6150234 0.18983,3.186507 0.37747,6.72477 0.41697,7.862809 0.0395,1.138038 0.19833,2.720945 0.35291,3.517571 0.41665,2.147035 0.7398,7.830439 0.76475,13.44954 0.0203,4.558712 -0.0931,7.199888 -0.68384,15.932533 -0.61753,9.129217 -0.8153,14.177557 -0.82395,21.032781 l -0.01,7.583241 -1.06889,-0.215311 c -0.58787,-0.118414 -1.23434,-0.06447 -1.43656,0.119854 -0.89883,0.819271 -4.38498,1.263093 -7.8356,0.997555 -1.98782,-0.15297 -3.98363,-0.264049 -4.43511,-0.246847 -7.95157,0.302997 -9.38717,0.432453 -16.6232,1.49906 -0.56436,0.08318 -2.21986,-0.104456 -3.67887,-0.416985 z m -39.86061,-8.086913 c 0.9281,-0.499484 3.33352,-2.687619 5.34536,-4.862525 5.06406,-5.474534 6.27529,-6.644277 6.87991,-6.644277 0.28797,0 0.75427,-0.372448 1.03623,-0.827662 0.28196,-0.45522 0.71485,-0.827669 0.96198,-0.827669 0.24713,0 1.26473,-0.809684 2.26135,-1.799303 0.99661,-0.989619 2.36614,-2.09784 3.04338,-2.462708 0.67724,-0.364862 2.13049,-1.510528 3.22945,-2.545925 1.09896,-1.035395 2.12253,-1.882534 2.27462,-1.882534 0.15209,0 1.09224,-0.83801 2.08923,-1.862244 1.33083,-1.367194 2.13229,-1.862244 3.01484,-1.862244 h 1.20213 l -0.31912,4.034862 c -1.10548,13.978051 -1.16548,16.556362 -0.42199,18.13606 0.872,1.852727 2.61666,1.978594 3.87367,0.279461 0.46304,-0.625918 1.18344,-1.510486 1.60087,-1.965699 0.41744,-0.455214 1.4718,-1.935933 2.34302,-3.290483 0.87123,-1.354551 3.02712,-3.947399 4.79087,-5.76189 1.76376,-1.814491 3.20682,-3.428027 3.20682,-3.585642 0,-0.157614 1.05542,-1.382361 2.34537,-2.721666 1.28996,-1.339301 3.07189,-3.269638 3.95985,-4.289633 0.88797,-1.020002 1.91942,-2.044236 2.2921,-2.276077 0.37269,-0.231845 1.30347,-0.793986 2.06842,-1.249201 0.76493,-0.455216 1.77882,-1.200113 2.25307,-1.655328 0.48452,-0.465077 1.26994,-0.768424 1.79286,-0.69244 1.57715,0.229179 2.00095,-0.533984 2.02023,-3.637853 0.0209,-3.360726 -0.41057,-3.944333 -2.81036,-3.801569 -0.9336,0.05555 -1.60806,-0.09123 -1.60806,-0.349944 0,-0.245084 -1.3391,-1.830966 -2.97576,-3.524185 -3.55144,-3.674147 -5.64368,-6.291622 -5.64368,-7.060472 0,-0.30879 -0.34532,-0.747775 -0.76739,-0.975521 -0.42207,-0.227745 -1.07676,-1.025751 -1.45486,-1.773345 -1.0343,-2.044998 -2.82048,-4.718968 -4.34493,-6.504442 -0.33862,-0.396604 -0.80038,-1.012338 -1.02612,-1.368302 -0.22576,-0.355963 -1.28778,-1.78494 -2.36009,-3.175506 -1.07229,-1.390565 -1.94963,-2.638008 -1.94963,-2.772096 0,-0.388255 -3.36265,-3.649189 -4.78352,-4.63884 -1.90405,-1.326174 -3.12678,-1.167805 -4.44584,0.57583 -1.10039,1.454576 -1.1139,1.546464 -0.86721,5.897106 0.13784,2.430728 0.35158,8.190551 0.47499,12.799605 l 0.22439,8.380098 h -1.07468 c -1.32181,0 -2.66231,-0.684347 -2.66303,-1.359513 -3e-4,-0.276501 -0.73911,-1.575485 -1.6418,-2.886628 -0.9027,-1.311144 -1.64127,-2.656977 -1.64127,-2.990741 0,-0.333766 -0.46174,-0.911894 -1.02612,-1.284729 -0.56436,-0.372837 -1.02611,-0.859792 -1.02611,-1.082126 0,-0.222334 -0.41558,-0.956474 -0.92352,-1.631422 -1.80695,-2.401115 -8.23823,-9.669626 -8.88513,-10.041822 -0.3618,-0.208156 -0.75017,-0.507699 -0.86303,-0.665651 -0.11287,-0.157952 -1.12531,-1.085925 -2.24984,-2.062161 -1.12453,-0.976235 -2.23819,-2.166488 -2.47481,-2.645006 -0.64569,-1.305801 -2.31741,-1.142958 -2.99963,0.292198 -0.43323,0.911334 -0.78884,1.134672 -1.64734,1.03458 -0.95761,-0.111649 -1.11032,-0.335119 -1.21839,-1.782976 -0.0689,-0.923864 -0.42102,-1.88391 -0.79674,-2.172619 -0.86219,-0.662529 -1.14615,-0.65077 -1.86834,0.07737 -0.49353,0.497588 -0.5658,2.642444 -0.44275,13.139166 0.0809,6.899477 0.23064,19.719627 0.33281,28.48922 0.10218,8.769592 0.0574,16.153312 -0.0996,16.408264 -0.15696,0.254951 -0.18295,3.3003 -0.0578,6.767445 0.21466,5.944711 0.28157,6.347928 1.1742,7.076701 1.1856,0.967948 1.24056,0.965683 3.28645,-0.135351 z"
   id="path958" />
<path
   style="fill:#00ff00;stroke-width:0.501559"
   d="m -652.10929,62.372377 c 0,-0.3399 0.0463,-0.39878 0.70372,-0.896416 0.20533,-0.155402 0.42687,-0.424581 0.49233,-0.598175 0.089,-0.235989 0.21989,-0.315627 0.51878,-0.315627 0.4653,0 0.49097,0.155842 0.21941,1.332501 l -0.16914,0.732875 -0.88255,0.03941 c -0.86426,0.03858 -0.88255,0.03248 -0.88255,-0.294559 z"
   id="path960" />
<path
   style="fill:#00ff00;stroke-width:0.501559"
   d="m -653.80445,49.002715 c -0.0652,-0.128253 -0.16061,-0.413075 -0.21203,-0.632938 -0.0514,-0.219863 -0.25986,-0.579638 -0.46318,-0.799501 -0.35428,-0.3831 -0.76854,-1.610013 -0.60074,-1.779195 0.0712,-0.07175 1.93278,-0.03934 2.01053,0.035 0.0168,0.0161 0.0606,0.789901 0.0973,1.719551 l 0.0667,1.690275 h -0.39 c -0.23818,0 -0.43615,-0.09078 -0.50854,-0.233189 z"
   id="path962" />
<path
   style="fill:none;stroke-width:0.326477"
   d="m 98.132693,83.119542 c 0.158698,-1.310961 0.183971,-1.822776 0.10767,-2.180528 -0.06181,-0.289818 -0.04782,-0.621625 0.05308,-1.258692 0.07536,-0.475818 0.137023,-1.24914 0.137023,-1.718492 0,-0.499551 0.05725,-1.076834 0.13808,-1.392346 0.149347,-0.582962 0.179351,-1.793768 0.0801,-3.232523 -0.0545,-0.790118 -0.037,-0.953145 0.205181,-1.911139 0.237783,-0.940594 0.264474,-1.178291 0.261887,-2.33227 -0.0016,-0.706716 0.02184,-1.503926 0.05206,-1.77158 0.03854,-0.341425 0.01848,-0.560526 -0.06723,-0.734233 -0.10841,-0.219691 -0.08802,-0.567852 0.180941,-3.089729 0.293242,-2.749529 0.298389,-2.855457 0.157954,-3.250858 -0.210135,-0.59165 -0.186424,-0.988562 0.213958,-3.581608 0.334511,-2.166429 0.353673,-2.384289 0.269567,-3.063806 -0.05975,-0.482694 -0.06401,-1.173206 -0.01254,-2.02994 0.06807,-1.132955 0.05707,-1.407733 -0.08632,-2.156386 -0.108299,-0.565435 -0.1391,-0.933599 -0.09034,-1.079755 0.09856,-0.295418 0.251278,-1.576981 0.25261,-2.119876 6.05e-4,-0.238792 -0.141653,-1.133849 -0.316087,-1.989015 l -0.317153,-1.554847 0.153133,-0.759484 c 0.170818,-0.847195 0.12737,-1.899976 -0.0963,-2.333357 -0.104274,-0.202042 -0.110359,-0.425427 -0.03663,-1.344835 0.09853,-1.228681 0.09465,-1.252601 -0.428425,-2.645179 -0.30875,-0.821978 -0.336207,-0.958603 -0.274104,-1.363905 0.08848,-0.577487 -0.09301,-5.232009 -0.212922,-5.460485 -0.100991,-0.192424 -0.224663,-1.120334 -0.215866,-1.619633 0.04806,-2.727994 0.03379,-3.229147 -0.100651,-3.534854 -0.113525,-0.258139 -0.126436,-0.451101 -0.06936,-1.036565 0.03972,-0.407364 0.03632,-0.85051 -0.0078,-1.021712 -0.183266,-0.710646 -0.230177,-1.14964 -0.140712,-1.316804 0.05084,-0.095 0.06806,-0.34713 0.03901,-0.571175 -0.166747,-1.285919 -0.251981,-2.852672 -0.236525,-4.347739 0.01656,-1.601901 0.03754,-1.799851 0.361044,-3.405921 0.382198,-1.897485 0.405529,-2.2066206 0.204463,-2.7091353 C 98.159893,8.8722881 98.162715,8.8157819 98.344316,8.1427534 98.49093,7.5993989 98.521048,7.3295742 98.472059,6.9983381 98.4368,6.7599529 98.403288,6.1956343 98.397586,5.7442967 98.38673,4.8849112 98.396628,4.9171134 97.800314,3.8007377 97.578535,3.3855384 97.446162,3.2445549 97.134762,3.0918996 95.969359,2.5205915 95.672689,2.4515417 95.183152,2.637663 94.980792,2.7146001 94.915473,2.6960331 94.715925,2.5048537 94.38296,2.1858537 93.929938,2.0804652 93.418771,2.2030922 93.099396,2.2797091 92.957876,2.2787685 92.8089,2.1990383 92.472729,2.019125 91.118424,1.9593852 90.006251,2.0754107 89.533483,2.1247314 89.42441,2.1017061 88.81479,1.8238934 87.959804,1.4342636 87.686805,1.3876645 87.174417,1.5438926 c -0.367297,0.1119895 -0.45983,0.1114598 -0.800394,-0.00458 -0.256072,-0.087252 -0.522085,-0.1126822 -0.794015,-0.075905 -0.224913,0.030418 -0.829305,0.07666 -1.343094,0.1027595 -0.910546,0.046253 -0.943189,0.04148 -1.291205,-0.1888257 -0.540493,-0.357682 -0.951601,-0.3690862 -1.685971,-0.046769 L 80.644638,1.6005392 79.798163,1.415752 C 79.095095,1.2622709 78.776076,1.238953 77.915122,1.2781158 76.979767,1.320663 76.858647,1.309064 76.674632,1.1593207 76.473447,0.99560446 77.174803,0.99337462 128.86999,0.99337462 h 52.39928 V 42.240017 83.486658 H 139.67876 98.088251 Z"
   id="path1042"
   transform="translate(-702)" />
</svg>
